<svg xmlns="http://www.w3.org/2000/svg" viewBox="0 0 81.1 33.45"><defs><style>.cls-1{fill:#251d1c;}</style></defs><title>tyontyon</title><g id="レイヤー_2" data-name="レイヤー 2"><g id="レイヤー_1-2" data-name="レイヤー 1"><line class="cls-1" x1="40.55" y1="2.55" x2="40.55" y2="27.27"/><path class="cls-1" d="M37.92,2.55V27.27c0,3.39,5.27,3.4,5.27,0V2.55c0-3.4-5.27-3.4-5.27,0Z"/><line class="cls-1" x1="78.5" y1="7.58" x2="67.04" y2="30.83"/><path class="cls-1" d="M76.23,6.25l-10,20.36L64.76,29.5a2.71,2.71,0,0,0,.95,3.61,2.67,2.67,0,0,0,3.61-1l10-20.36,1.42-2.89a2.7,2.7,0,0,0-1-3.6,2.65,2.65,0,0,0-3.6.94Z"/><line class="cls-1" x1="2.6" y1="7.58" x2="14.07" y2="30.83"/><path class="cls-1" d="M.33,8.91l10,20.37,1.42,2.88a2.67,2.67,0,0,0,3.61,1,2.7,2.7,0,0,0,.94-3.61L6.3,9.14,4.88,6.25a2.67,2.67,0,0,0-3.61-.94,2.67,2.67,0,0,0-.94,3.6Z"/></g></g></svg>