<svg xmlns="http://www.w3.org/2000/svg" viewBox="0 0 541.93 123.99"><defs><style>.cls-1{fill:#d7c8c3;}.cls-2{fill:#261c1b;}</style></defs><title>アセット 1</title><g id="レイヤー_2" data-name="レイヤー 2"><g id="logo"><g id="logo14"><path class="cls-1" d="M0,124l53.07-.55,126.42-1.32,153.85-1.61,132.18-1.38,43.88-.46,13.66-.15c2.24,0,4.94.37,7.14-.07a4.4,4.4,0,0,1,.89,0c2.13,0,5.44-7.26,6.35-8.83.43-.75,4.64-9.92,4.47-9.92l-53.07.56-126.42,1.32-153.85,1.61L76.4,104.56,32.51,105l-13.65.14c-2.24,0-4.94-.36-7.14.08a5.29,5.29,0,0,1-.89,0c-2.13,0-5.44,7.25-6.35,8.83C4,114.83-.17,124,0,124Z"/></g><g id="logo1"><path class="cls-2" d="M30.36,84.14a20.6,20.6,0,0,1-3.5-1,9.42,9.42,0,0,1-1.26-.66,4.45,4.45,0,0,1-1-.71,3.84,3.84,0,0,1-1.41-3.42,2.39,2.39,0,0,1,.12-.83,9.41,9.41,0,0,1,.38-1.28A14.71,14.71,0,0,1,25,73.74a29.1,29.1,0,0,1,4.55-5.39A67.71,67.71,0,0,1,44.4,57.78a67.75,67.75,0,0,1,17.86-6.87,35,35,0,0,1,8.23-.86,21.24,21.24,0,0,1,3.67.38,9.62,9.62,0,0,1,3,1c3.35,2.55,3.47,6.93,2.4,10.94-1.48,5.51-4.72,10.56-8.17,15A74.42,74.42,0,0,1,58.22,90.73a41.16,41.16,0,0,1-6.44,4.16A17.08,17.08,0,0,1,49,96.07a11.77,11.77,0,0,1-1.26.34,4.13,4.13,0,0,1-1,.15,6.76,6.76,0,0,1-1.19,0c.34,0,0,0-.14,0s-.42-.11-.62-.18.18.12-.16-.09c-.13-.08-.27-.15-.39-.24a5.15,5.15,0,0,1-.94-.92,3.91,3.91,0,0,1-.65-2.9,13.47,13.47,0,0,1,1.73-4.74,48.91,48.91,0,0,1,4.39-6.58,1.55,1.55,0,0,0,0-2.12,1.51,1.51,0,0,0-2.12,0C43,83.38,35,93.91,42.81,98.69c3.79,2.33,8.92-.22,12.27-2.2a64.73,64.73,0,0,0,14.6-12.37A61.61,61.61,0,0,0,80.93,67.5c2-4.69,3.52-10.5.86-15.26a10.52,10.52,0,0,0-2.23-2.74,8.73,8.73,0,0,0-3.7-1.75,25.92,25.92,0,0,0-8.6-.6,58.63,58.63,0,0,0-19.53,5.61,78.4,78.4,0,0,0-17.6,11c-3.84,3.22-8,7.26-9.52,12.2-1.31,4.33.87,8,4.89,9.78A20.63,20.63,0,0,0,29.57,87c1.88.39,2.69-2.5.79-2.89Z"/></g><g id="logo2"><path class="cls-2" d="M103.8,52.12c2.63-2.75,5.78-5.49,7.09-9.16.6-1.68.61-4.61-1.43-5.31a4,4,0,0,0-3.43.69,12.24,12.24,0,0,0-4.77,6.33,3.35,3.35,0,0,0,.59,3.41c1.11,1.08,2.88.8,4.2.36a2.18,2.18,0,0,0,1.56-1.25c.06-.16.12-.32.19-.48l.83-2.07,1.4-3.45c.57-1.41-1.55-2.52-2.51-1.46l-4.6,5a1.54,1.54,0,0,0,0,2.12,1.51,1.51,0,0,0,2.12,0l4.6-5-2.51-1.46-2.43,6,1-1c-.33.12-.67.24-1,.33l-.41.1a1.25,1.25,0,0,0-.19,0c-.15,0,.38,0,0,0h-.32a.66.66,0,0,0-.14,0c-.16,0,.39.12.17,0a1.19,1.19,0,0,0-.23-.07c.08-.06.38.22.1,0,0,0,.29.27.1.05.1.12.22.33.1.1.08.15.13.37.07.12s0,.41,0,.08v-.24c0-.34-.08.3,0,.08s.09-.42.16-.63.07-.2.1-.3c.12-.36-.11.21,0,0s.23-.47.35-.7a11.18,11.18,0,0,1,.89-1.38l.11-.16c.12-.16-.18.22,0,.07s.18-.22.27-.33.38-.43.58-.64.35-.35.53-.51l.27-.23c.31-.27-.23.14.1-.08a6.29,6.29,0,0,1,.64-.41c.07,0,.46-.21.18-.1s.08,0,.14,0a1.8,1.8,0,0,0,.31-.07c-.2.32-.38,0-.21,0h.17c.28-.07-.35-.07-.07,0s-.33-.19,0,0l-.54-.53a3.87,3.87,0,0,1,.21.34c.19.3,0-.16,0,.1a2.8,2.8,0,0,0,.09.31c.09.3,0-.27,0,0,0,.13,0,.26,0,.39s-.08.49,0,.11c0,.24-.1.47-.17.7l-.12.36c-.09.26.08-.15-.08.18s-.27.54-.41.79a15.69,15.69,0,0,1-1.06,1.59,6.81,6.81,0,0,1-.42.54l-.69.82c-.43.48-.87,1-1.32,1.43-.76.8-1.54,1.57-2.3,2.36-1.33,1.4.78,3.52,2.12,2.13Z"/></g><g id="logo3"><path class="cls-2" d="M111.3,89.28l-.81,4.26A1.51,1.51,0,0,0,113,95a14.26,14.26,0,0,1,7.07-4l-1.15-.15c-.45-.23-.21-.5-.14.06,0,.25.09.51.12.77a15.23,15.23,0,0,0,.23,2c.32,1.3,1.51,1.55,2.66,1.3,2.61-.58,5.09-2.26,7.46-3.43a12,12,0,0,1,3-1.22.11.11,0,0,1-.12,0,4,4,0,0,1,.48.28,10.46,10.46,0,0,1,1.66,1.92c.87,1.12,1.85,2.51,3.3,2.89a10,10,0,0,0,5.06-.48,29.65,29.65,0,0,0,8-3.85c1.59-1.07.09-3.67-1.52-2.59a26.16,26.16,0,0,1-7.77,3.68,9.45,9.45,0,0,1-2.54.37c-.73,0-1-.39-1.52-1-1.1-1.29-2-2.91-3.54-3.77a3.93,3.93,0,0,0-3.52,0c-1.53.61-3,1.38-4.45,2.12a41.17,41.17,0,0,1-3.91,1.87,8.45,8.45,0,0,1-.81.26c-.19,0-.1.1,0,0s-.21,0-.21,0l1.18.91c0-.13,0-.16,0-.07s0-.38,0-.35c0-.39-.07-.78-.12-1.17a5.79,5.79,0,0,0-.61-2.38c-.7-1.17-1.87-1-3-.71a18,18,0,0,0-7.35,4.49l2.51,1.46.81-4.26c.35-1.88-2.54-2.69-2.9-.8Z"/></g><g id="logo4"><path class="cls-2" d="M165.55,103.63a10.83,10.83,0,0,1-1.05-5.51,28.88,28.88,0,0,1,1.32-7.31,76.08,76.08,0,0,1,7.73-17,99.57,99.57,0,0,1,10.62-15,46.83,46.83,0,0,1,5.16-5.19,16.3,16.3,0,0,1,2.07-1.52c.3-.18.6-.34.91-.49s.36-.16.22-.11l.51-.16a3.2,3.2,0,0,1,.42-.1c-.31.06-.15,0,0,0s.53,0,.79,0c-.49,0,0,0,.07,0,.31.16-.28-.14.09,0a3.13,3.13,0,0,1,.3.2c-.35-.25,0,0,.13.14.36.38.13.07.42.55a8.31,8.31,0,0,1,.52,1,7.18,7.18,0,0,1,.34.88c.17.47.31.94.44,1.42,1.27,4.71,1.61,9.67,2.09,14.5a140.31,140.31,0,0,0,2.14,16.09c.73,3.29,1.86,7.9,5.25,9.46,2,.91,4.4.39,6.32-.47a13.86,13.86,0,0,0,6.13-6.24c3.44-6.37,4.36-14.28,3.92-21.42a41.85,41.85,0,0,0-.62-5.12c-.35-1.9-3.24-1.1-2.89.79a41.57,41.57,0,0,1-1.77,21.52c-1,2.65-2.5,5.5-4.9,7.12A7.68,7.68,0,0,1,208.69,93c-.56.06.06,0-.38,0h-.44c-.2,0,.24.06-.12,0-.13,0-.58-.21-.24-.06a4.23,4.23,0,0,1-.42-.22c-.34-.2-.06,0-.18-.12a6.55,6.55,0,0,1-.74-.75c.21.25-.12-.19-.17-.26s-.22-.34-.32-.52a10.6,10.6,0,0,1-.58-1.17,31.57,31.57,0,0,1-1.67-6c-1-5.25-1.39-10.61-1.94-15.92-.48-4.78-.82-9.82-2.35-14.41-1-3-2.9-5.82-6.47-5.15a10.51,10.51,0,0,0-4.25,2.18,40,40,0,0,0-5.17,4.82,96.6,96.6,0,0,0-10.86,14.57,90.26,90.26,0,0,0-8.61,17.43c-1.63,4.65-3,10-1.91,14.9a11.33,11.33,0,0,0,1.09,2.89c.93,1.7,3.52.19,2.59-1.51Z"/></g><g id="logo5"><path class="cls-2" d="M234.1,90.43a2.46,2.46,0,0,0-2.31-3.57,7.39,7.39,0,0,0-5,2.27c-1.24,1.25-2.44,4-.64,5.37,2.15,1.58,5.12-1.36,6.59-2.65H230.6c4.86,5.24,11.56,2.4,16.86-.49l-2.2-1.7-.75,3.75A1.52,1.52,0,0,0,247,94.87a26.31,26.31,0,0,1,4.89-3.35,7,7,0,0,0,.8-.32c.62-.41-.69.12-.5-.19,0,.06.51,1.12.55,1.24A4.32,4.32,0,0,0,255.42,95a7.18,7.18,0,0,0,3.16.27A41.34,41.34,0,0,0,267,92.92c2.41-.82,5.17-2,7.76-1.75a1.51,1.51,0,0,0,1.5-1.5,2.79,2.79,0,0,0-3.41-3,8.15,8.15,0,0,0-4.45,2.66c-1.13,1.27-2,3.23-.67,4.69,2,2.23,5.53-1,7.16-2.3l-2.36-.31c4.52,6.08,11.86,2.76,17.22-.24a1.5,1.5,0,0,0-1.52-2.59c-3.54,2-9.87,5.68-13.11,1.32a1.54,1.54,0,0,0-2.36-.31,19.25,19.25,0,0,1-2.57,1.82,5.12,5.12,0,0,0-.78.37c0-.1.64.36.56.26.22.29,0,.24.2-.09a3.23,3.23,0,0,1,.69-.85A5.94,5.94,0,0,1,273,89.74a2.7,2.7,0,0,1,.49-.12c-.12,0,.22.16,0,0s-.27-.32-.28,0l1.5-1.5c-2.81-.27-5.79.92-8.4,1.81s-5.5,2.18-8.33,2.39c-.74.06-1.76.09-2.22-.65-.59-1-.69-2.13-1.58-2.92-1.25-1.11-2.81-.41-4.09.26a33.82,33.82,0,0,0-5.23,3.69l2.51,1.46.74-3.75a1.52,1.52,0,0,0-2.21-1.69c-4,2.2-9.42,5.06-13.22,1a1.53,1.53,0,0,0-2.12,0,17.89,17.89,0,0,1-2.28,1.78c-.17.1-.53.21-.64.35s-.18,0,.32.32.1.46.34-.17a2.65,2.65,0,0,1,.78-1,5.05,5.05,0,0,1,2.25-1.13c.21,0,.53-.07.55,0s-.67-.69-.55-.68c0-.16,0-.14,0,.06a3.84,3.84,0,0,1-.14.36,1.51,1.51,0,0,0,1,1.85,1.53,1.53,0,0,0,1.84-1Z"/></g><g id="logo6"><path class="cls-2" d="M317.16,45.85c-3.09,6.93-6.39,13.9-8.4,21.24-1.32,4.81-2.47,11,.95,15.23a7.34,7.34,0,0,0,2.75,2.23,6.75,6.75,0,0,0,2.9.22,15.51,15.51,0,0,0,6.29-2.25c5.08-3,9.31-7.42,13.24-11.74,5.44-6,10.45-12.32,15.63-18.52l-2.12-2.12a70.87,70.87,0,0,0-11.61,19.65,101.36,101.36,0,0,0-5.33,20.59c-.64,3.93-1.15,7.89-1.65,11.84-.24,1.91,2.76,1.9,3,0,1.7-13.48,3.82-27.13,10.41-39.22a66.39,66.39,0,0,1,7.3-10.74c1.23-1.48-.88-3.61-2.12-2.12-4.22,5-8.34,10.19-12.66,15.16A90.5,90.5,0,0,1,323.3,77.77a22.21,22.21,0,0,1-5.65,3.39c-1.27.48-3.33,1.17-4.55.29-3.74-2.72-2.72-8.45-1.79-12.28,1.85-7.56,5.28-14.72,8.44-21.8.78-1.75-1.8-3.28-2.59-1.52Z"/></g><g id="logo7"><path class="cls-2" d="M356.3,89.76c0-2-1.31-3.55-3.4-3.12a8.25,8.25,0,0,0-4.34,2.92c-1,1.22-2.13,3.36-.68,4.73,1.89,1.78,5.54-1.13,6.81-2.43h-2.12c4.48,5.16,11.9,2.6,16.74-.59l-2.21-1.69-.72,4a1.51,1.51,0,0,0,2.5,1.46,21,21,0,0,1,3.8-2.9,13.84,13.84,0,0,1,2.1-1.16,4,4,0,0,1,.59-.18c-.05,0-.28,0-.29,0,.14-.15,1.26.55,0-.21-.78-.47-.47-.49-.5-.15a6.45,6.45,0,0,0,0,.71c0,.58,0,1.16.11,1.74.18,1.44,1.19,2.68,2.74,1.91L376.3,95c2,.35,4.06-.91,5.77-1.82,1.12-.59,2.22-1.21,3.35-1.79a7.62,7.62,0,0,1,2.5-1c.59,0,1.22.94,1.62,1.47a14.37,14.37,0,0,0,2.66,3c2.22,1.66,6.07.21,8.37-.68,3.15-1.22,6.35-3.21,9.76-3.54a1.53,1.53,0,0,0,1.45-1.9c-1.16-4.07-6.62-1-8.27,1-1.06,1.25-1.62,3.06-.23,4.31,2.26,2,5.55-.91,7.29-2.29l-2.36-.3c3.9,5.37,11.28,3.09,16.05.29a1.5,1.5,0,0,0-1.52-2.59c-3,1.78-9.2,4.56-11.94.79a1.53,1.53,0,0,0-2.35-.31,18.34,18.34,0,0,1-2.37,1.66c-.07,0-.93.38-.94.41s.15,0,.22.22c.15.36,0,.31.15.12a6.15,6.15,0,0,1,.65-.74,6.48,6.48,0,0,1,2-1.31c.26-.1.88-.14.95-.21s-.32-.4-.27-.22l1.45-1.89c-4.81.46-8.85,3.48-13.48,4.6a11.2,11.2,0,0,1-1.62.28l-.66,0s-.87-.15-.54,0-.17-.17-.22-.22-.27-.26-.4-.4a16.22,16.22,0,0,1-1.1-1.38c-1.07-1.44-2.28-3.2-4.28-3.2a10.18,10.18,0,0,0-4.37,1.53c-1.66.85-3.26,1.82-5,2.6a9.25,9.25,0,0,1-1.6.55c.13,0-1.12-.12-1.16.18,0,.12,2,.33,1.78.58,0,0,0-.14-.05-.26,0-1.23.13-3.2-.82-4.14a1.64,1.64,0,0,0-.55-.36c-.15-.06-1.05-.22-.43-.12a3,3,0,0,0-1.16,0,8.6,8.6,0,0,0-2.39,1,24.67,24.67,0,0,0-5.57,4l2.51,1.46.73-4c.21-1.19-1-2.48-2.21-1.7-3.68,2.43-9.56,5.13-13.1,1.06a1.51,1.51,0,0,0-2.12,0,8.21,8.21,0,0,1-2.29,1.68c-.15.08-.56.19-.7.29-.53.37-.84-.68.52.56.28.26-.1.38.11.28s0-.16.08-.24a4.07,4.07,0,0,1,.73-1,6.77,6.77,0,0,1,2-1.58c.15-.06.53-.09.63-.18-.06,0,0,.1-.11,0-.41-.48-.28-.26-.28.21,0,1.93,3,1.93,3,0Z"/></g><g id="logo8"><path class="cls-2" d="M433.79,88.25c-3.35-.89-5.93,1.68-8.79,2.85l-.67.21c.06-.07-.2,0,0,0a2.24,2.24,0,0,0,.26.1c.14,0,.07-.1.28-.25a3.41,3.41,0,0,1,3.08-.22c-.21-.1-.21-.31,0,.12.14.25.3.5.43.77a6.68,6.68,0,0,1,.46,1.6,9.77,9.77,0,0,1-.16,3.49,21.39,21.39,0,0,1-3.67,7.88,23.47,23.47,0,0,1-6.23,6.14c-1.83,1.18-4.12,2.19-6.06,1.64a4.1,4.1,0,0,1-2.75-4.69c.64-2.95,3.79-5.06,6.18-6.54A65.81,65.81,0,0,1,430.88,95c3-1,6-1.77,9-2.49,1.2-.29,3.2-.32,3.95-1.39a13.72,13.72,0,0,0,.82-1.51l-2.59-1.51c-.66,1.48-1.43,3.14-1.24,4.8.16,1.48,1.2,2.81,2.8,2.49a8.57,8.57,0,0,0,3.94-1.83c.77-.67,1.32-1.55,2.09-2.23l-2.36-.3c2,3.24,5.36,4.29,9,3.48a22.2,22.2,0,0,0,6.19-2.61,4.84,4.84,0,0,0,1.43-1,5.05,5.05,0,0,1,.6-.78A6.32,6.32,0,0,1,467.57,89l-.8-2.9c-2.88,1-6.35,2.72-6.08,6.28.25,3.38,4.34,4.25,7.08,4a29.29,29.29,0,0,0,11.57-4A2.77,2.77,0,0,0,481,90.2l.67-3.24L483,80.52l-2.89-.8-2.76,15.22c-.28,1.57,1.9,2.76,2.75,1.16a11.48,11.48,0,0,1,2.71-3.65c.45-.36,1-.52,1.42-.83.55-.11.38-.21-.5-.3l.14.13.33.42c1.21,1.69,1.87,3.89,4.25,4,6,.19,11.46-1.93,16.77-4.51,1.74-.84.22-3.43-1.51-2.59a45.26,45.26,0,0,1-8,3.22,24.68,24.68,0,0,1-4.42.79c-.84.07-1.81,0-2.62.1a1.19,1.19,0,0,0-.42,0c.3.19.37.22.23.08a3.89,3.89,0,0,1-.32-.39C487.1,91,486.1,88,483.74,88.64c-2.89.73-4.9,3.45-6.22,5.94l2.75,1.16L483,80.52c.34-1.88-2.5-2.71-2.89-.8L478,90.21l.69-.9a34.56,34.56,0,0,1-6.57,3.09,15,15,0,0,1-6.06,1,3.66,3.66,0,0,1-1.83-.58c-.55-.42-.57-.48-.51-1,.19-1.62,2.6-2.38,3.9-2.82a1.51,1.51,0,0,0-.8-2.9A8.09,8.09,0,0,0,462,88.35c-.05.05-.64.75-.45.58a8.3,8.3,0,0,1-1.59.91,21.33,21.33,0,0,1-2.62,1.2c-2.78,1-5.74,1.25-7.48-1.54a1.52,1.52,0,0,0-2.35-.31c-.66.59-1.15,1.31-1.76,1.92a6,6,0,0,1-3.17,1.41l1.16.15c.14.11,0-.54.09-.79a10.05,10.05,0,0,1,.8-2.29c.76-1.72-1.66-3.25-2.59-1.51l-.82,1.51.9-.69a119.14,119.14,0,0,0-17.67,5.15c-4.64,1.79-9.33,3.9-13.2,7.09-2.62,2.16-4.94,5.27-4.28,8.85a7,7,0,0,0,6.14,5.69c2.92.3,5.81-1.14,8.1-2.81a28.68,28.68,0,0,0,7.21-7.84,21,21,0,0,0,3.44-9.56c.2-2.73-.54-6.71-3.46-7.56a6.27,6.27,0,0,0-5.56,1c-1.45,1.26-1.75,3.85,0,5,1.59,1,3.5-.1,4.91-.89s3.44-2.33,5.19-1.87a1.5,1.5,0,0,0,.8-2.89Z"/></g><g id="logo9"><path class="cls-2" d="M514.57,58.8l-2.93,25.47-.42,3.65a1.88,1.88,0,0,0,1.87,1.88A1.93,1.93,0,0,0,515,87.92l2.93-25.46.42-3.66a1.88,1.88,0,0,0-1.87-1.87,1.92,1.92,0,0,0-1.88,1.87Z"/></g><g id="logo10"><path class="cls-2" d="M510.93,92.6,510,95.12l-.14.36a2.17,2.17,0,0,0,.19,1.45,1.88,1.88,0,0,0,2.57.67l.38-.29a1.93,1.93,0,0,0,.48-.83l.92-2.52.13-.36a2.17,2.17,0,0,0-.19-1.45,1.89,1.89,0,0,0-1.12-.86,1.86,1.86,0,0,0-1.44.19l-.38.29a1.86,1.86,0,0,0-.49.83Z"/></g><g id="logo11"><path class="cls-2" d="M247.7,5l5.57,11.28.78,1.6a1.5,1.5,0,1,0,2.59-1.51L251.08,5.08l-.79-1.6A1.5,1.5,0,0,0,247.7,5Z"/></g><g id="logo12"><path class="cls-2" d="M268.53,1.45v13.7a1.5,1.5,0,0,0,3,0V1.45a1.5,1.5,0,0,0-3,0Z"/></g><g id="logo13"><path class="cls-2" d="M289.77,3.48,284.2,14.77l-.78,1.6A1.5,1.5,0,1,0,286,17.88L291.57,6.6l.79-1.6a1.53,1.53,0,0,0-.54-2,1.51,1.51,0,0,0-2.05.53Z"/></g></g></g></svg>