<?xml version="1.0" encoding="utf-8"?>
<!-- Generator: Adobe Illustrator 24.0.3, SVG Export Plug-In . SVG Version: 6.00 Build 0)  -->
<svg version="1.1" id="logo" xmlns="http://www.w3.org/2000/svg" xmlns:xlink="http://www.w3.org/1999/xlink" x="0px" y="0px"
	 viewBox="0 0 573.69 213.92" style="enable-background:new 0 0 573.69 213.92;" xml:space="preserve">
<style type="text/css">
	.st0{fill:#D7C8C3;}
	.st1{fill:#261C1B;}
</style>
<path class="st0" d="M24.3,152.93c17.01-0.18,34.02-0.36,51.03-0.53c40.5-0.42,81-0.85,121.49-1.27
	c49.29-0.52,98.58-1.03,147.87-1.55c42.32-0.44,84.64-0.89,126.96-1.33c14.04-0.15,28.08-0.29,42.12-0.44
	c4.32-0.05,8.64-0.09,12.95-0.14c2.16-0.02,4.77,0.35,6.9-0.07c0.27-0.05,0.6-0.01,0.88-0.01c2.04-0.02,5.22-6.97,6.1-8.48
	c0.42-0.72,4.46-9.53,4.3-9.52c-17.01,0.18-34.02,0.36-51.03,0.53c-40.5,0.42-81,0.85-121.49,1.27
	c-49.29,0.52-98.58,1.03-147.87,1.55c-42.32,0.44-84.64,0.89-126.96,1.33c-14.04,0.15-28.08,0.29-42.12,0.44
	c-4.32,0.05-8.64,0.09-12.95,0.14c-2.16,0.02-4.77-0.35-6.9,0.07c-0.27,0.05-0.6,0.01-0.88,0.01c-2.04,0.02-5.22,6.97-6.1,8.48
	C28.18,144.13,24.14,152.93,24.3,152.93L24.3,152.93z"/>
<path class="st1" d="M53.68,113.86c-0.61-0.13-1.21-0.27-1.81-0.44c-0.3-0.09-0.6-0.18-0.9-0.29c-0.16-0.06-0.96-0.39-0.44-0.16
	c-0.43-0.19-0.86-0.4-1.26-0.65c-0.21-0.13-0.4-0.26-0.6-0.4c-0.12-0.08-0.3-0.27,0.13,0.1c-0.1-0.09-0.21-0.17-0.3-0.26
	c-0.13-0.13-0.27-0.28-0.41-0.41c-0.43-0.4,0.04,0.11-0.07-0.07c-0.09-0.15-0.2-0.29-0.29-0.45c-0.12-0.21-0.29-0.82-0.09-0.14
	c-0.1-0.33-0.19-0.65-0.27-0.99c-0.08-0.32-0.01,0.56,0.01,0.03c0.01-0.21,0-0.44,0-0.65c0-0.19,0.11-0.81-0.02-0.07
	c0.03-0.19,0.06-0.37,0.1-0.56c0.1-0.44,0.24-0.86,0.38-1.28c0.04-0.11,0.09-0.22,0.13-0.33c-0.02,0.05-0.22,0.49-0.06,0.14
	c0.1-0.2,0.19-0.4,0.29-0.6c0.23-0.44,0.47-0.87,0.74-1.3c0.27-0.43,0.55-0.85,0.85-1.25c0.09-0.12,0.17-0.23,0.26-0.35
	c0.22-0.29-0.34,0.42,0.03-0.04c0.19-0.24,0.39-0.48,0.58-0.71c0.81-0.95,1.67-1.86,2.57-2.72c4.15-4.01,8.78-7.12,14.01-9.96
	c5.41-2.94,10.85-5.21,16.96-6.54c2.72-0.59,4.77-0.89,7.7-0.83c0.6,0.01,1.19,0.04,1.79,0.1c0.12,0.01,1.09,0.14,0.55,0.06
	c0.31,0.05,0.62,0.1,0.93,0.16c0.54,0.11,1.08,0.24,1.61,0.4c0.26,0.08,0.52,0.16,0.77,0.25c0.14,0.05,0.29,0.09,0.42,0.16
	c0.06,0.02,0.11,0.04,0.17,0.07c-0.27-0.1-0.31-0.09-0.1,0.04c0,0-0.41-0.35-0.06-0.04c0.08,0.07,0.17,0.14,0.25,0.22
	c0.2,0.19,0.39,0.37,0.58,0.57c0.08,0.08,0.53,0.63,0.33,0.38c-0.17-0.23,0.28,0.42,0.35,0.54c0.11,0.18,0.2,0.36,0.3,0.54
	c0.06,0.11,0.11,0.23,0.17,0.34c0.15,0.29-0.18-0.53-0.02-0.04c0.16,0.47,0.31,0.93,0.42,1.41c0.03,0.15,0.15,0.92,0.06,0.26
	c0.03,0.24,0.05,0.48,0.07,0.72c0.03,0.53,0.03,1.06,0,1.59c-0.02,0.29-0.04,0.58-0.07,0.86c-0.01,0.11-0.06,0.44,0.01-0.07
	c-0.02,0.12-0.03,0.24-0.06,0.36c-0.11,0.61-0.23,1.21-0.39,1.82c-0.32,1.23-0.74,2.43-1.23,3.59c0.15-0.36-0.18,0.41-0.24,0.53
	c-0.13,0.29-0.27,0.59-0.41,0.88c-0.32,0.67-0.66,1.32-1.02,1.97c-1.39,2.52-3.12,5.1-4.79,7.26c-3.53,4.59-7.91,9.08-12.6,12.73
	c0.27-0.21-0.32,0.24-0.42,0.31c-0.29,0.21-0.58,0.43-0.87,0.63c-0.53,0.38-1.08,0.75-1.62,1.11c-1.01,0.66-2.05,1.28-3.13,1.83
	c-0.46,0.24-0.93,0.46-1.41,0.67c-0.32,0.14,0.51-0.2,0.01,0c-0.1,0.04-0.2,0.08-0.3,0.12c-0.24,0.09-0.49,0.18-0.73,0.26
	c-0.42,0.14-0.84,0.26-1.26,0.35c-0.22,0.05-0.44,0.09-0.67,0.13c-0.15,0.03-0.42,0.02,0.21-0.03c-0.13,0.01-0.25,0.03-0.38,0.03
	c-0.36,0-0.72-0.01-1.07-0.01c-0.17,0,0.53,0.16-0.06-0.03c-0.17-0.05-0.34-0.11-0.51-0.15c-0.18-0.04,0.45,0.31,0.01-0.01
	c-0.12-0.09-0.27-0.16-0.4-0.24c-0.23-0.15,0.06,0.05,0.09,0.07c-0.11-0.09-0.23-0.19-0.33-0.29c-0.13-0.13-0.66-0.82-0.37-0.37
	c-0.12-0.19-0.23-0.38-0.34-0.57c-0.26-0.47,0.1,0.32,0,0c-0.04-0.14-0.08-0.27-0.12-0.41c-0.03-0.11-0.05-0.23-0.07-0.34
	c0.09,0.48,0.02,0.18,0.01,0.06c-0.02-0.36-0.02-0.72,0.01-1.08c0.03-0.4-0.11,0.54,0.02-0.15c0.03-0.15,0.06-0.3,0.09-0.45
	c0.09-0.4,0.21-0.8,0.34-1.19c0.28-0.8,0.64-1.55,1.04-2.31c1.17-2.2,2.62-4.27,4.14-6.24c0.74-0.96,0.94-2.25,0-3.18
	c-0.77-0.77-2.43-0.97-3.18,0c-3.8,4.91-11.58,15.53-3.44,20.45c3.93,2.37,9.06-0.04,12.56-2.1c5.38-3.17,10.14-7.51,14.31-12.13
	c4.33-4.79,8.32-10.14,10.88-16.1c2.05-4.77,3.49-10.58,0.8-15.41c-0.59-1.06-1.39-2.03-2.31-2.82c-1.16-1-2.48-1.52-3.96-1.89
	c-2.76-0.7-5.68-0.82-8.51-0.58c-6.65,0.56-13.05,2.73-19.08,5.51c-6.12,2.82-11.93,6.4-17.09,10.74
	c-3.79,3.18-7.82,7.16-9.31,12.02c-1.38,4.51,0.89,8.5,5.1,10.35c1.31,0.57,2.66,0.99,4.06,1.28
	C55.31,118.79,56.52,114.45,53.68,113.86L53.68,113.86z"/>
<path class="st1" d="M124.59,84.45c2.63-2.75,5.71-5.47,7.02-9.15c0.73-2.05,0.48-5.3-1.94-6.1c-1.33-0.44-2.79-0.01-3.92,0.75
	c-2.23,1.49-4.19,3.97-4.96,6.56c-0.42,1.41-0.31,2.98,0.78,4.06c1.27,1.26,3.27,1.07,4.82,0.55c0.52-0.17,1.09-0.34,1.47-0.75
	c0.29-0.31,0.42-0.62,0.59-1.02c0.06-0.15,0.12-0.3,0.18-0.46c0.27-0.66,0.54-1.33,0.8-1.99c0.45-1.11,0.89-2.21,1.34-3.32
	c0.35-0.88-0.23-2.12-1.03-2.54c-0.86-0.45-2.04-0.4-2.73,0.35c-1.47,1.62-2.94,3.23-4.42,4.85c-0.79,0.87-0.92,2.33,0,3.18
	c0.86,0.79,2.34,0.93,3.18,0c1.47-1.62,2.94-3.23,4.42-4.85c-1.25-0.73-2.51-1.46-3.76-2.19c-0.78,1.93-1.56,3.86-2.34,5.79
	c0.52-0.52,1.05-1.05,1.57-1.57c-0.32,0.12-0.64,0.23-0.97,0.32c-0.13,0.03-0.26,0.07-0.39,0.09c-0.59,0.12,0.49-0.01,0.08-0.01
	c-0.1,0-0.2,0-0.3,0.01c-0.48,0.02,0.46,0.12,0.24,0.04c-0.56-0.2,0.49,0.3,0.07,0.04c-0.02-0.01,0.51,0.47,0.26,0.18
	c0.06,0.07,0.38,0.58,0.23,0.26c0.04,0.08,0.24,0.66,0.14,0.31c-0.11-0.38,0.02,0.69,0.04,0.29c0-0.08,0-0.15,0-0.23
	c-0.01-0.41-0.12,0.59-0.05,0.29c0.05-0.2,0.09-0.4,0.15-0.6c0.03-0.1,0.07-0.19,0.1-0.28c0.15-0.44-0.22,0.47-0.08,0.17
	c0.11-0.23,0.21-0.46,0.34-0.68c0.25-0.46,0.54-0.91,0.85-1.33c0.04-0.05,0.07-0.1,0.11-0.15c0.15-0.21-0.35,0.43-0.18,0.24
	c0.09-0.11,0.17-0.22,0.26-0.32c0.18-0.21,0.36-0.41,0.55-0.61c0.16-0.17,0.33-0.33,0.51-0.49c0.09-0.08,0.17-0.15,0.26-0.22
	c0.38-0.33-0.47,0.33-0.06,0.05c0.2-0.14,0.4-0.27,0.61-0.39c0.1-0.06,0.54-0.25,0.08-0.05c-0.44,0.19-0.07,0.03,0.04,0
	c0.1-0.03,0.2-0.04,0.3-0.07c-0.69,0.24-0.55,0.03-0.26,0.06c0.41,0.04-0.67-0.14-0.28-0.03c0.38,0.1-0.59-0.29-0.24-0.1
	c-0.27-0.27-0.54-0.54-0.81-0.81c0.07,0.11,0.13,0.22,0.2,0.33c0.25,0.41-0.1-0.46-0.04-0.1c0.02,0.1,0.05,0.21,0.08,0.3
	c0.11,0.35,0-0.55-0.03-0.18c-0.01,0.12,0.01,0.25,0,0.37c0,0.05-0.01,0.11-0.01,0.16c-0.03,0.24-0.01,0.15,0.04-0.27
	c-0.08,0.06-0.12,0.55-0.17,0.67c-0.04,0.12-0.08,0.23-0.12,0.34c-0.14,0.4,0.25-0.5,0.01-0.02c-0.13,0.26-0.25,0.51-0.4,0.76
	c-0.3,0.53-0.65,1.03-1.01,1.52c-0.04,0.06-0.09,0.12-0.13,0.17c-0.1,0.13-0.06,0.08,0.13-0.17c-0.01,0.09-0.21,0.26-0.28,0.34
	c-0.22,0.27-0.44,0.53-0.67,0.79c-0.41,0.47-0.84,0.93-1.27,1.38c-0.73,0.76-1.48,1.5-2.21,2.27c-0.81,0.85-0.91,2.35,0,3.18
	C122.29,85.26,123.72,85.36,124.59,84.45L124.59,84.45z"/>
<path class="st1" d="M130.44,119.37c-0.26,1.36-0.52,2.73-0.78,4.09c-0.41,2.17,2.05,3.8,3.76,2.19c1.86-1.74,3.91-3.11,6.44-3.59
	c-0.58-0.08-1.16-0.15-1.73-0.23c-0.58-0.29-0.65-1.12-0.5-0.36c0.08,0.4,0.06,0.33,0.09,0.58c0.07,0.66,0.07,1.37,0.23,2.02
	c0.43,1.69,1.98,2.17,3.52,1.84c2.56-0.55,5.02-2.21,7.34-3.36c1.22-0.6,1.55-0.73,2.72-1.12c0.2-0.07-0.56,0.03-0.52,0
	c-0.16,0.15-0.15-0.28,0.03,0.02c0.03,0.05,0.27,0.22,0.11,0.08c0.6,0.5,1.08,1.19,1.56,1.81c0.94,1.21,1.96,2.55,3.51,2.98
	c1.67,0.47,3.7,0.01,5.31-0.47c2.77-0.82,5.49-2.16,7.89-3.77c2.39-1.61,0.14-5.51-2.27-3.89c-1.44,0.97-3,1.81-4.59,2.51
	c-1.2,0.53-2.5,0.99-3.8,1.19c-0.51,0.08-1.03-0.01-1.53,0.06c-0.54,0.08,0.49-0.05,0.37,0.15c0,0.01-0.58-0.56-0.63-0.62
	c-1.61-1.76-2.98-4.55-5.75-4.51c-1.99,0.03-4.05,1.36-5.77,2.23c-1.18,0.6-2.36,1.21-3.56,1.77c-0.65,0.3-0.4,0.21-1.02,0.42
	c-0.19,0.06-0.42,0.09-0.61,0.17c-0.26,0.12,0.05-0.11,0.06,0c-0.01-0.16,1.21,0.32,1.02,0.23c0.27,0.27,0.54,0.54,0.81,0.81
	c0.21,0.34,0.21,0.26,0.17,0.55c0.03-0.22-0.05-0.52-0.07-0.74c-0.06-0.6-0.11-1.2-0.22-1.8c-0.23-1.24-0.85-2.53-2.17-2.89
	c-1.48-0.41-3.62,0.65-4.9,1.29c-1.75,0.87-3.3,2.13-4.72,3.46c1.25,0.73,2.51,1.46,3.76,2.19c0.26-1.36,0.52-2.73,0.78-4.09
	c0.23-1.19-0.33-2.43-1.57-2.77C132.11,117.5,130.67,118.17,130.44,119.37L130.44,119.37z"/>
<path class="st1" d="M184.04,132.96c-0.1-0.18-0.19-0.37-0.28-0.55c-0.23-0.46,0.12,0.35,0.01,0.03c-0.03-0.1-0.08-0.2-0.11-0.3
	c-0.14-0.45-0.27-0.89-0.36-1.35c-0.03-0.14-0.05-0.28-0.08-0.42c-0.06-0.32,0.05,0.41,0.01,0.08c-0.03-0.24-0.05-0.47-0.07-0.71
	c-0.04-0.56-0.05-1.12-0.03-1.67c0.02-0.56,0.06-1.12,0.12-1.68c0.01-0.14,0.03-0.27,0.05-0.41c-0.01,0.09-0.06,0.43,0-0.02
	c0.05-0.32,0.1-0.63,0.16-0.95c0.24-1.3,0.56-2.59,0.94-3.86c1.69-5.7,4.3-10.93,7.36-16.11c3.01-5.12,6.32-9.92,10.13-14.28
	c1.51-1.73,3.1-3.4,4.86-4.88c0.19-0.16,0.39-0.32,0.59-0.48c0.25-0.2-0.32,0.24-0.07,0.05c0.08-0.06,0.17-0.13,0.25-0.19
	c0.36-0.25,0.71-0.5,1.09-0.73c0.29-0.18,0.61-0.32,0.9-0.49c0.42-0.25-0.49,0.13,0.04-0.02c0.15-0.04,0.3-0.09,0.45-0.14
	c0.12-0.04,0.26-0.04,0.38-0.08c-0.14,0.05-0.55,0.01-0.11,0.04c0.26,0.02,1.19,0.08,0.28-0.04c0.11,0.01,0.23,0.05,0.34,0.09
	c0.32,0.1-0.59-0.27-0.14-0.04c0.22,0.11,0.38,0.38-0.08-0.09c0.11,0.11,0.23,0.23,0.35,0.33c0.16,0.13,0.36,0.54-0.02-0.05
	c0.08,0.13,0.18,0.24,0.25,0.37c0.18,0.33,0.36,0.65,0.52,0.99c0.14,0.3-0.15-0.44,0.04,0.1c0.06,0.18,0.14,0.36,0.2,0.55
	c0.15,0.45,0.29,0.9,0.41,1.36c1.28,4.79,1.5,8.88,1.99,13.9c0.51,5.16,0.94,10.39,2.07,15.46c0.79,3.56,2.09,8.28,5.87,9.72
	c0.72,0.28,1.51,0.39,2.28,0.34c0.17-0.01,1.2-0.13,0.58-0.07c0.43-0.05,0.86-0.09,1.29-0.17c0.79-0.15,1.53-0.42,2.26-0.75
	c2.75-1.24,4.81-3.73,6.21-6.34c3.34-6.23,4.28-13.92,3.86-20.89c-0.1-1.73-0.32-3.47-0.63-5.17c-0.22-1.2-1.67-1.87-2.77-1.57
	c-1.26,0.35-1.79,1.57-1.57,2.77c1.19,6.47,0.65,13.91-1.68,20.19c-0.5,1.34-1.16,2.67-1.97,3.89c-0.62,0.92-1.62,2.02-2.43,2.55
	c-1.05,0.69-2.06,0.94-3.09,1.06c0.04-0.01-0.78,0.06-0.23,0.03c0.48-0.02-0.01,0-0.04-0.01c-0.1-0.03-0.33-0.02-0.44-0.01
	c0.36-0.02,0.45,0.09,0.08-0.01c-0.28-0.08-0.61-0.34-0.05,0.01c-0.11-0.07-0.28-0.11-0.37-0.21c-0.35-0.38,0.23,0.24,0.02,0.03
	c-0.25-0.25-0.5-0.49-0.73-0.76c0.45,0.53-0.17-0.29-0.3-0.52c-0.22-0.38-0.4-0.77-0.58-1.17c0.25,0.56-0.01-0.04-0.07-0.19
	c-0.08-0.23-0.17-0.46-0.25-0.7c-0.16-0.47-0.3-0.94-0.43-1.42c-0.3-1.09-0.54-2.19-0.75-3.3c-0.51-2.7-0.73-4.54-1.03-7.18
	c-0.3-2.65-0.54-5.3-0.81-7.94c-0.47-4.64-0.8-9.53-2.28-13.99c-1.11-3.35-3.33-6.32-7.25-5.53c-1.55,0.31-2.96,1.21-4.2,2.15
	c-1.86,1.4-3.53,3.01-5.11,4.71c-4.03,4.37-7.54,9.26-10.67,14.31c-3.28,5.3-6.19,10.89-8.27,16.78c-1.65,4.64-3,9.97-1.86,14.89
	c0.23,1.01,0.62,2,1.12,2.91C181.54,137.77,185.42,135.5,184.04,132.96L184.04,132.96z"/>
<path class="st1" d="M249.97,120.9c0.93-2.23-0.65-4.45-3.02-4.46c-1.95,0-4.01,1.04-5.37,2.41c-1.5,1.51-2.62,4.51-0.76,6.21
	c2.45,2.24,5.82-0.86,7.61-2.44c-1.06,0-2.12,0-3.18,0c4.95,5.33,11.75,2.61,17.17-0.35c-1.1-0.85-2.2-1.69-3.31-2.54
	c-0.24,1.2-0.47,2.4-0.71,3.6c-0.46,2.3,2.01,3.6,3.76,2.19c1.6-1.28,3.59-3.04,5.48-3.4c-0.4,0-0.8,0-1.2,0
	c-0.25-0.06-0.35-0.35-0.54-0.43c0.05,0.02,0.29,0.57,0.13,0.22c0.24,0.53,0.4,1.09,0.66,1.61c0.59,1.18,1.49,1.97,2.74,2.38
	c1.96,0.65,4.02,0.29,5.98-0.23c2.37-0.63,4.65-1.51,6.98-2.27c2.03-0.66,3.96-1.36,5.84-1.19c1.22,0.11,2.24-1.12,2.25-2.25
	c0.03-2.51-1.96-4.08-4.39-3.62c-1.73,0.33-3.43,1.49-4.59,2.79c-1.38,1.56-2.22,3.93-0.57,5.65c2.41,2.52,6.04-0.71,7.98-2.26
	c-1.18-0.15-2.36-0.3-3.53-0.46c1.98,2.66,4.77,4.08,8.13,3.7c3.42-0.39,6.56-1.99,9.52-3.65c2.53-1.42,0.26-5.3-2.27-3.89
	c-2.89,1.62-8.76,5.23-11.49,1.56c-0.93-1.25-2.31-1.43-3.53-0.46c-0.6,0.48-1.21,0.93-1.86,1.34c-0.15,0.1-0.83,0.36-0.88,0.5
	c-0.07,0.22-0.1-0.12,0.34,0.04c0.33,0.19,0.66,0.39,0.99,0.58c-0.29-0.23-0.12-0.27-0.02,0.04c0.02,0.05,0.21,0.85,0.19,0.51
	c0.02,0.37-0.25,0.57,0.1,0.08c0.28-0.39-0.04,0.01,0.08-0.12c0.11-0.12,0.22-0.24,0.33-0.35c0.14-0.14,0.29-0.27,0.44-0.4
	c0.49-0.42-0.34,0.21,0.19-0.14c0.3-0.2,0.61-0.39,0.94-0.55c0.25-0.12-0.35,0.1,0.06-0.02c0.16-0.05,0.32-0.1,0.49-0.14
	c-0.53,0.13-0.21,0-0.01,0.03c-0.43-0.05-0.16,0.11-0.53-0.14c-0.31-0.2-0.38-0.46-0.6-0.73c0.21,0.26-0.01-0.35-0.01,0.09
	c0.75-0.75,1.5-1.5,2.25-2.25c-2.7-0.25-5.56,0.85-8.07,1.69c-1.47,0.5-2.94,1.02-4.42,1.48c-0.72,0.22-1.44,0.43-2.17,0.61
	c-0.64,0.15-1.11,0.24-1.41,0.25c-0.24,0.01-0.47,0.02-0.71,0.01c-0.4,0,0.32,0.13-0.27-0.05c-0.06-0.02-0.79-0.21-0.42-0.09
	c0.15,0.05,0.02-0.01,0-0.07c-0.15-0.35-0.39-0.95-0.68-1.58c-0.28-0.62-0.65-1.17-1.2-1.59c-2.99-2.3-7.74,2.24-9.89,3.96
	c1.25,0.73,2.51,1.46,3.76,2.19c0.24-1.2,0.47-2.4,0.71-3.6c0.38-1.91-1.51-3.52-3.31-2.54c-3.54,1.93-8.37,4.67-11.72,1.05
	c-0.87-0.93-2.29-0.78-3.18,0c-0.67,0.59-1.35,1.18-2.13,1.64c-0.16,0.09-0.64,0.51-0.44,0.24c-0.27,0.07-0.24,0.07,0.1,0
	c1.05,0.64,1.39,0.77,1.04,0.38c0.19,0.33,0.39,0.66,0.58,0.99c-0.16-0.61,0,0.25-0.02-0.09c-0.01-0.23-0.14,0.31,0.01-0.06
	c-0.01,0.02,0.24-0.39,0.09-0.21c0.5-0.64,0.67-0.71,1.48-1.12c0.08-0.04,0.52-0.2,0.12-0.06c0.15-0.05,0.3-0.11,0.46-0.15
	c0.15-0.04,0.29-0.07,0.44-0.1c-0.24,0.04-0.34,0.06-0.04,0.03c0.21-0.02-0.46-0.17-0.13-0.02c-0.4-0.18-0.58-0.32-0.81-0.72
	c-0.03-0.05-0.47-0.96-0.2-1.03c-0.02,0.01-0.17,0.49-0.18,0.52c-0.47,1.12,0.51,2.47,1.57,2.77
	C248.5,122.83,249.5,122.03,249.97,120.9L249.97,120.9z"/>
<path class="st1" d="M328.29,77.45c-3.01,6.76-6.25,13.57-8.19,20.73c-1.33,4.91-2.32,11.03,1.18,15.3c0.7,0.86,1.62,1.66,2.61,2.17
	c1.01,0.52,2.36,0.5,3.47,0.39c2.22-0.23,4.3-1.07,6.22-2.19c4.95-2.86,9.07-7.17,12.89-11.35c5.27-5.78,10.12-11.92,15.14-17.92
	c-1.06-1.06-2.12-2.12-3.18-3.18c-4.81,5.78-8.61,12.2-11.35,19.2c-2.49,6.36-4.02,13.05-5.12,19.78
	c-0.63,3.86-1.13,7.75-1.62,11.63c-0.15,1.21,1.14,2.25,2.25,2.25c1.34,0,2.1-1.04,2.25-2.25c1.03-8.17,2.18-16.36,4.54-24.26
	c2.53-8.46,6.58-16.36,12.24-23.16c0.78-0.93,0.91-2.27,0-3.18c-0.8-0.8-2.4-0.94-3.18,0c-4.05,4.85-8.01,9.79-12.15,14.56
	c-3.67,4.23-7.49,8.53-11.94,11.97c-0.81,0.63-1.66,1.21-2.54,1.75c-0.8,0.49-1.9,1.07-2.56,1.32c-0.38,0.14-0.76,0.26-1.14,0.37
	c-0.22,0.06-0.45,0.11-0.67,0.15c-0.7,0.14,0.24-0.01-0.17,0.03c-0.4,0.04-0.79,0.04-1.18,0.04c-0.14,0-0.63-0.17-0.24-0.01
	c0.33,0.13-0.34-0.23-0.35-0.24c-1.18-0.88-1.86-2.44-2.03-4.01c-0.25-2.3,0.16-4.63,0.71-6.86c1.76-7.2,5.02-14.01,8.02-20.75
	c0.49-1.11,0.32-2.42-0.81-3.08C330.41,76.09,328.78,76.34,328.29,77.45L328.29,77.45z"/>
<path class="st1" d="M367.39,120.04c0.03-2.44-1.73-4.28-4.23-3.78c-1.77,0.35-3.43,1.64-4.56,3c-1.28,1.53-2.39,3.95-0.71,5.66
	c2.18,2.23,6.14-0.68,7.72-2.29c-1.06,0-2.12,0-3.18,0c4.56,5.24,12.11,2.83,17.06-0.44c-1.1-0.85-2.2-1.69-3.31-2.54
	c-0.23,1.29-0.47,2.59-0.7,3.88c-0.38,2.11,2.06,3.88,3.76,2.19c1.07-1.07,2.32-1.95,3.61-2.74c0.53-0.32,1.4-0.83,1.77-0.97
	c0.02-0.01,0.55-0.03,0.32-0.13c-0.12-0.05-0.48-0.01-0.49-0.03c-0.05-0.07,1.44,0.43,0.2,0.03c-0.33-0.19-0.66-0.39-0.99-0.58
	c-0.19-0.15-0.25-0.43-0.37-0.63c0.03,0.04,0.08,0.26,0.06,0.31c0.05-0.12-0.03-0.36-0.02-0.03c0.01,0.14,0.02,0.28,0.02,0.42
	c0.03,0.65,0.05,1.29,0.14,1.94c0.26,1.94,1.9,3.22,3.81,2.28c-0.58,0.08-1.16,0.15-1.73,0.23c2.85,0.49,5.68-1.57,8.07-2.86
	c1.24-0.67,2.2-1.2,3.36-1.52c0.47-0.13-0.44,0.14,0.19,0c-0.32,0.07-0.51-0.34-0.23,0.03c0.38,0.5,0.83,0.96,1.21,1.46
	c1.08,1.44,2.31,3.23,4.24,3.44c1.89,0.2,3.83-0.22,5.62-0.81c3.42-1.14,6.81-3.49,10.45-3.85c1.42-0.14,2.6-1.33,2.17-2.85
	c-1.32-4.62-7.22-1.84-9.28,0.55c-1.32,1.53-1.89,3.75-0.24,5.3c2.57,2.41,6.09-0.56,8.15-2.19c-1.18-0.15-2.36-0.3-3.53-0.46
	c4.04,5.57,11.48,3.52,16.52,0.57c2.5-1.47,0.23-5.36-2.27-3.89c-1.94,1.14-4.13,2.19-6.41,2.35c-1.4,0.1-3.06-0.07-3.95-1.3
	c-0.92-1.27-2.32-1.41-3.53-0.46c-0.69,0.55-1.65,0.97-2.28,1.56c-0.1,0.09-0.41,0.13-0.36,0.2c0.19,0.28,0.7,0.19,0.93,0.58
	c0.21,0.35,0.15,0.64,0.13,1.01c0.07-0.22,0.04-0.18-0.09,0.14c0.03-0.07,0.07-0.14,0.11-0.21c0.42-0.31-0.18,0.15,0.12-0.17
	c0.13-0.14,0.27-0.28,0.41-0.41c0.02-0.02,0.52-0.43,0.18-0.17c0.17-0.13,0.34-0.25,0.52-0.36c0.21-0.13,0.42-0.25,0.64-0.36
	c0.48-0.26-0.09-0.01,0.29-0.13c0.17-0.06,0.35-0.11,0.53-0.16c0.35-0.1-0.25-0.11,0.05,0c0.4,0.16-0.38-0.13-0.47-0.17
	c0.32,0.2,0.18,0.04-0.44-0.48c-0.12-0.34-0.14-0.39-0.07-0.15c0.72-0.95,1.45-1.9,2.17-2.85c-2.98,0.29-5.65,1.53-8.37,2.71
	c-2.42,1.05-5,2.21-7.7,1.95c0.38,0.1,0.76,0.2,1.14,0.31c-1.52-0.83-2.35-3.03-3.78-4.2c-1.69-1.38-3.56-1.14-5.44-0.35
	c-1.83,0.77-3.53,1.79-5.28,2.7c-0.73,0.38-1.49,0.77-2,0.93c-0.19,0.06-0.38,0.11-0.57,0.17c-0.43,0.13,0.25-0.1,0.03,0
	c-0.13,0-0.1,0.01,0.1,0.03c0.37,0.05,0.22,0.04-0.43-0.06c-0.44,0-0.83,0.16-1.22,0.35c0.38-0.1,0.76-0.2,1.14-0.31
	c0.15,0.02,0.3,0.04,0.46,0.07c0.33,0.19,0.66,0.39,0.99,0.58c-0.07-0.06,0.73,1.02,0.39,0.64c-0.12-0.13-0.02-0.12,0.01,0.12
	c-0.04-0.3-0.04-0.61-0.06-0.92c-0.03-0.71-0.03-1.44-0.19-2.13c-0.16-0.73-0.46-1.38-1.08-1.84c-0.25-0.18-0.5-0.33-0.8-0.41
	c-0.04-0.01-1.05-0.17-0.42-0.07c0.52,0.09-0.51-0.07-0.74-0.06c-1.54,0.06-3.07,1.05-4.33,1.85c-1.5,0.95-2.99,2.02-4.26,3.28
	c1.25,0.73,2.51,1.46,3.76,2.19c0.23-1.29,0.47-2.59,0.7-3.88c0.32-1.78-1.53-3.71-3.31-2.54c-3.22,2.12-8.48,4.74-11.61,1.14
	c-0.79-0.91-2.37-0.82-3.18,0c-0.56,0.57-1.16,1.05-1.88,1.41c-0.52,0.26-0.08,0.05-0.56,0.25c-0.64,0.27-0.35-0.07,0.12,0.1
	c0.33,0.19,0.66,0.39,0.99,0.58c0.27,0.25,0.41,0.53,0.42,0.87c0.02,0.22,0.02,0.24,0.01,0.05c0.04,0.1,0.06,0.53,0.01,0.12
	c-0.02-0.16-0.2,0.33,0,0.02c0.1-0.15,0.19-0.31,0.29-0.46c0.23-0.34-0.1,0.11,0.07-0.09c0.11-0.13,0.23-0.26,0.35-0.38
	c0.2-0.21,0.7-0.64,0.73-0.66c-0.19,0.14,0.29-0.19,0.28-0.18c0.14-0.08,0.29-0.16,0.42-0.25c0.19-0.12,0.34-0.18,0.05-0.05
	c0.03-0.01,0.46-0.12,0.47-0.14c-0.1,0.01-0.2,0.03-0.3,0.04c0.2,0,0.19-0.01-0.03-0.03c-0.21-0.04-0.22-0.04-0.05,0.01
	c-0.23-0.13-0.45-0.26-0.68-0.4c-0.48-0.42,0.22-0.11-0.24-0.39c-0.13-0.08-0.01-0.35-0.01,0.19
	C362.86,122.94,367.36,122.94,367.39,120.04L367.39,120.04z"/>
<path class="st1" d="M441.24,117.81c-3.47-0.92-6.31,1.71-9.02,2.79c0.24-0.1-0.15,0.03-0.19,0.06c-0.26,0.17-0.12,0.04-0.12,0.06
	c0,0,0.02-0.08,0.31,0.04c0.19,0.08,0.38,0.15,0.53,0.31c0.24,0.24,0.28,0.47,0.27,0.79c-0.01,0.21-0.11,0.26-0.01,0.03
	c-0.05,0.11-0.05,0.19-0.13,0.16c0.15,0.06,0.39-0.18,0.41-0.19c0.13-0.05,0.28-0.07,0.42-0.1c-0.4,0.08,0.06-0.01,0.17-0.01
	c0.13-0.01,1.02,0.06,0.57-0.02c0.13,0.02,0.26,0.05,0.38,0.09c0.3,0.1,0.04,0.01,0.04,0c-0.03,0.05-0.17-0.31-0.03-0.03
	c-0.11-0.22-0.76-1.33-0.15-0.1c0.12,0.23,0.26,0.45,0.38,0.68c0.19,0.38,0.04,0.08,0,0c0.05,0.12,0.1,0.24,0.13,0.37
	c0.09,0.32,0.17,0.63,0.24,0.96c0.09,0.43,0.02,0.09,0.01,0c0.02,0.17,0.03,0.34,0.04,0.51c0.02,0.28,0.02,0.55,0.01,0.83
	c-0.02,0.91-0.02,0.82-0.19,1.66c-0.58,2.74-1.76,5-3.45,7.38c-1.44,2.03-3.62,4.26-5.61,5.56c-0.52,0.34-1.05,0.65-1.6,0.92
	c-0.16,0.08-0.31,0.15-0.47,0.22c0.08-0.04,0.38-0.15-0.02,0.01c-0.31,0.12-0.61,0.22-0.93,0.31c-0.24,0.07-0.49,0.12-0.73,0.17
	c-0.42,0.09-0.02,0.01,0.06,0c-0.12,0.01-0.24,0.03-0.35,0.03c-0.26,0-0.52,0-0.78-0.01c-0.08,0-0.45-0.06-0.12-0.01
	c0.35,0.06-0.13-0.03-0.2-0.06c-0.13-0.04-0.27-0.08-0.4-0.12c-0.3-0.09,0.36,0.18,0.07,0.04c-0.23-0.11-0.45-0.24-0.67-0.38
	c-0.09-0.06-0.32-0.26,0.03,0.03c-0.09-0.08-0.19-0.16-0.27-0.24c-0.11-0.12-0.63-0.75-0.41-0.42c-0.17-0.25-0.32-0.54-0.44-0.82
	c0.12,0.3-0.11-0.45-0.14-0.58c-0.09-0.35,0.02,0.34-0.01-0.01c-0.01-0.13-0.02-0.27-0.02-0.4c0-0.17,0-0.33,0.02-0.5
	c-0.03,0.33-0.02,0.09,0.03-0.1c0.22-0.77,0.19-0.74,0.54-1.33c0.4-0.69,0.56-0.87,1.13-1.46c1.18-1.23,2.56-2.22,4-3.1
	c4.29-2.64,9.07-4.44,13.86-5.96c2.82-0.9,5.68-1.68,8.55-2.37c1.43-0.34,3.52-0.39,4.39-1.73c0.3-0.46,0.52-0.97,0.78-1.45
	c-1.3-0.76-2.59-1.51-3.89-2.27c-0.68,1.54-1.45,3.21-1.31,4.94c0.15,2,1.62,3.68,3.74,3.25c1.51-0.31,2.97-0.93,4.13-1.96
	c0.74-0.65,1.27-1.49,2.01-2.14c-1.18-0.15-2.36-0.3-3.53-0.46c2.15,3.46,5.75,4.59,9.63,3.7c2.19-0.5,4.29-1.54,6.22-2.67
	c0.62-0.36,1.22-0.69,1.62-1.3c0.24-0.36,0.06-0.25,0.33-0.44c0.7-0.51,1.73-0.7,2.6-0.84c-0.4-1.45-0.8-2.89-1.2-4.34
	c-3.12,1.06-6.69,2.98-6.44,6.8c0.24,3.7,4.44,4.93,7.54,4.68c4.01-0.33,7.9-1.92,11.38-3.86c1.19-0.66,1.91-1.32,2.18-2.63
	c0.22-1.04,0.43-2.09,0.65-3.13c0.43-2.08,0.86-4.16,1.3-6.25c-1.45-0.4-2.89-0.8-4.34-1.2c-0.88,4.88-1.76,9.75-2.65,14.63
	c-0.2,1.1,0.21,2.21,1.3,2.65c0.99,0.4,2.28,0.09,2.81-0.92c0.88-1.67,2.06-3.64,4.04-4.07c-0.4,0-0.8,0-1.2,0
	c-0.2-0.11-0.4-0.23-0.6-0.34c0.05,0.04,0.09,0.09,0.14,0.13c0.02,0.18,0.09,0.1,0.14,0.18c0.24,0.33,0.44,0.69,0.66,1.04
	c0.43,0.7,0.86,1.45,1.42,2.06c1.58,1.71,4.34,1.21,6.43,0.96c4.59-0.55,8.7-2.26,12.82-4.26c1.09-0.53,1.39-2.09,0.81-3.08
	c-0.65-1.12-1.98-1.34-3.08-0.81c-2.44,1.19-4.89,2.32-7.52,3.03c-1.33,0.36-2.69,0.61-4.06,0.72c-0.24,0.02-2.65,0.12-2.65,0.09
	c-0.01,0.17,0.81,0.24,0.57,0.31c-0.09-0.11-0.09-0.09,0.01,0.04c-0.07-0.1-0.14-0.2-0.21-0.3c-1.23-1.86-2.42-4.75-5.16-4.05
	c-2.97,0.75-5.08,3.5-6.44,6.08c1.37,0.58,2.74,1.16,4.11,1.73c0.88-4.88,1.76-9.75,2.65-14.63c0.22-1.19-0.33-2.43-1.57-2.77
	c-1.11-0.31-2.52,0.38-2.77,1.57c-0.7,3.36-1.39,6.72-2.09,10.08c0.34-0.45,0.69-0.9,1.03-1.34c-3.33,1.98-7.73,4.25-11.74,3.84
	c-0.42-0.04-0.98-0.2-1.21-0.36c-0.07-0.05-0.36-0.26-0.34-0.37c-0.25,1.2,0.31,0.44,0.13,0.26c-0.01-0.01,0-0.5-0.01-0.17
	c0-0.09,0.03-0.15,0.1-0.26c0.19-0.32-0.06,0.03,0.11-0.16c0.11-0.12,0.23-0.24,0.35-0.34c0.69-0.56,1.72-0.94,2.6-1.24
	c2.78-0.94,1.64-4.82-1.2-4.34c-2.06,0.35-4.68,1.29-5.62,3.36c0.27-0.27,0.54-0.54,0.81-0.81c-2.05,1.25-4.35,2.6-6.79,2.85
	c-1.65,0.17-2.82-0.32-3.73-1.78c-0.8-1.28-2.44-1.43-3.53-0.46c-0.63,0.56-1.1,1.25-1.69,1.84c-0.63,0.63-1.59,0.91-2.69,1.15
	c0.58,0.08,1.16,0.15,1.73,0.23c0.55,0.42,0.33,0.71,0.47,0.12c0.15-0.68,0.4-1.33,0.68-1.97c0.49-1.11,0.32-2.42-0.81-3.08
	c-1.02-0.6-2.5-0.27-3.08,0.81c-0.26,0.48-0.52,0.97-0.78,1.45c0.45-0.34,0.9-0.69,1.34-1.03c-5.84,1.27-11.63,2.87-17.21,5.04
	c-4.53,1.76-9.06,3.83-12.83,6.95c-2.77,2.3-5.05,5.63-4.27,9.39c0.68,3.26,3.47,5.67,6.75,5.95c2.96,0.25,5.9-1.19,8.21-2.91
	c2.88-2.14,5.31-4.85,7.2-7.9c1.79-2.89,3.15-6.19,3.33-9.62c0.08-1.46-0.12-2.98-0.65-4.35c-0.17-0.42-0.35-0.84-0.57-1.24
	c-0.03-0.06-0.07-0.11-0.1-0.17c0.14,0.43,0.09,0.33-0.15-0.29c-0.12-0.21-0.25-0.38-0.42-0.57c-0.59-0.67-1.41-1.08-2.27-1.29
	c-1.94-0.48-4.32-0.13-5.86,1.19c-1.79,1.54-2.04,4.71,0.13,6.07c1.84,1.15,3.88,0.11,5.56-0.83c0.85-0.47,1.69-0.99,2.58-1.38
	c0.18-0.08,0.79-0.29,1.15-0.36c0.27-0.05,0.42-0.03,0.64,0.03C442.85,122.89,444.04,118.55,441.24,117.81L441.24,117.81z"/>
<path class="st1" d="M516.68,90.3c-0.94,8.18-1.88,16.36-2.83,24.54c-0.13,1.15-0.26,2.29-0.4,3.44c-0.23,1.96,1.89,3.83,3.75,3.75
	c2.22-0.1,3.51-1.65,3.75-3.75c0.94-8.18,1.88-16.36,2.83-24.54c0.13-1.15,0.26-2.29,0.4-3.44c0.23-1.96-1.89-3.83-3.75-3.75
	C518.21,86.65,516.92,88.21,516.68,90.3L516.68,90.3z"/>
<path class="st1" d="M513.26,122.25c-0.29,0.81-0.59,1.61-0.88,2.42c-0.04,0.12-0.08,0.23-0.13,0.35c-0.16,0.5-0.18,1-0.07,1.5
	c0.02,0.5,0.17,0.96,0.45,1.39c0.24,0.44,0.56,0.79,0.97,1.05c0.36,0.33,0.79,0.56,1.28,0.67c0.33,0.04,0.66,0.09,1,0.13
	c0.68,0,1.31-0.17,1.89-0.51c0.25-0.2,0.51-0.39,0.76-0.59c0.46-0.47,0.79-1.02,0.96-1.65c0.29-0.81,0.59-1.61,0.88-2.42
	c0.04-0.12,0.08-0.23,0.13-0.35c0.16-0.5,0.18-1,0.07-1.5c-0.02-0.5-0.17-0.96-0.45-1.39c-0.24-0.44-0.56-0.79-0.97-1.05
	c-0.36-0.33-0.79-0.56-1.28-0.67c-0.33-0.04-0.66-0.09-1-0.13c-0.68,0-1.31,0.17-1.89,0.51c-0.25,0.2-0.51,0.39-0.76,0.59
	C513.76,121.07,513.44,121.62,513.26,122.25L513.26,122.25z"/>
<path class="st1" d="M261.56,39.02c1.78,3.61,3.56,7.23,5.35,10.84c0.25,0.51,0.51,1.02,0.76,1.54c0.52,1.06,2.11,1.43,3.08,0.81
	c1.08-0.7,1.37-1.95,0.81-3.08c-1.78-3.61-3.56-7.23-5.35-10.84c-0.25-0.51-0.51-1.02-0.76-1.54c-0.52-1.06-2.11-1.43-3.08-0.81
	C261.28,36.64,261,37.89,261.56,39.02L261.56,39.02z"/>
<path class="st1" d="M281.46,35.21c0,3.84,0,7.69,0,11.53c0,0.54,0,1.09,0,1.63c0,1.18,1.03,2.3,2.25,2.25
	c1.22-0.05,2.25-0.99,2.25-2.25c0-3.84,0-7.69,0-11.53c0-0.54,0-1.09,0-1.63c0-1.18-1.03-2.3-2.25-2.25
	C282.49,33.01,281.46,33.94,281.46,35.21L281.46,35.21z"/>
<path class="st1" d="M301.97,36.75c-1.78,3.61-3.56,7.23-5.35,10.84c-0.25,0.51-0.51,1.02-0.76,1.54c-0.52,1.05-0.32,2.48,0.81,3.08
	c1.01,0.54,2.52,0.32,3.08-0.81c1.78-3.61,3.56-7.23,5.35-10.84c0.25-0.51,0.51-1.02,0.76-1.54c0.52-1.05,0.32-2.48-0.81-3.08
	C304.04,35.41,302.53,35.63,301.97,36.75L301.97,36.75z"/>
<rect x="-779.76" y="371.66" class="st1" width="573.69" height="213.92"/>
<g>
	<g>
		<path class="st0" d="M50.86-138.26c37.48-0.39,74.96-0.77,112.44-1.16c59.76-0.61,119.53-1.23,179.29-1.84
			c13.75-0.14,27.51-0.28,41.26-0.42c1.31-0.01,3.35-4.47,3.91-5.44c0.27-0.46,2.86-6.11,2.76-6.11
			c-37.48,0.39-74.96,0.77-112.44,1.16c-59.76,0.61-119.53,1.23-179.29,1.84c-13.75,0.14-27.51,0.28-41.26,0.42
			c-1.31,0.01-3.35,4.47-3.91,5.44C53.35-143.9,50.76-138.25,50.86-138.26L50.86-138.26z"/>
	</g>
</g>
<g>
	<text transform="matrix(1 0 0 1 63.562 -156.4496)"><tspan x="0" y="0" style="fill:#261C1B;stroke:#261C1B;stroke-width:1.1121;stroke-miterlimit:10; font-family:'ShoppingScriptDemo'; font-size:49.6959px;">I</tspan><tspan x="41.23" y="-1.62" style="fill:#261C1B;stroke:#261C1B;stroke-width:1.1121;stroke-miterlimit:10; font-family:'BrushScriptMT'; font-size:49.6959px;">ʼ</tspan><tspan x="57.24" y="0" style="fill:#261C1B;stroke:#261C1B;stroke-width:1.1121;stroke-miterlimit:10; font-family:'ShoppingScriptDemo'; font-size:49.6959px;">m Nana Yamaguch!</tspan></text>
	<g>
		<line class="st1" x1="219.19" y1="-213.74" x2="219.19" y2="-205.3"/>
		<g>
			<path class="st1" d="M218.29-213.74c0,2.46,0,4.93,0,7.39c0,0.35,0,0.7,0,1.05c0,1.16,1.8,1.16,1.8,0c0-2.46,0-4.93,0-7.39
				c0-0.35,0-0.7,0-1.05C220.09-214.9,218.29-214.9,218.29-213.74L218.29-213.74z"/>
		</g>
	</g>
	<g>
		<line class="st1" x1="232.15" y1="-212.02" x2="228.23" y2="-204.08"/>
		<g>
			<path class="st1" d="M231.37-212.47c-1.14,2.32-2.29,4.63-3.43,6.95c-0.16,0.33-0.32,0.66-0.49,0.99
				c-0.21,0.44-0.12,0.97,0.32,1.23c0.4,0.23,1.02,0.11,1.23-0.32c1.14-2.32,2.29-4.63,3.43-6.95c0.16-0.33,0.32-0.66,0.49-0.99
				c0.21-0.44,0.12-0.97-0.32-1.23C232.2-213.03,231.59-212.91,231.37-212.47L231.37-212.47z"/>
		</g>
	</g>
	<g>
		<line class="st1" x1="206.23" y1="-212.02" x2="210.15" y2="-204.08"/>
		<g>
			<path class="st1" d="M205.46-211.57c1.14,2.32,2.29,4.63,3.43,6.95c0.16,0.33,0.32,0.66,0.49,0.99c0.21,0.44,0.83,0.56,1.23,0.32
				c0.44-0.26,0.54-0.79,0.32-1.23c-1.14-2.32-2.29-4.63-3.43-6.95c-0.16-0.33-0.32-0.66-0.49-0.99c-0.21-0.44-0.83-0.56-1.23-0.32
				C205.33-212.54,205.24-212,205.46-211.57L205.46-211.57z"/>
		</g>
	</g>
</g>
</svg>
