<?xml version="1.0" encoding="utf-8"?>
<!-- Generator: Adobe Illustrator 24.0.3, SVG Export Plug-In . SVG Version: 6.00 Build 0)  -->
<svg version="1.1" id="logo" xmlns="http://www.w3.org/2000/svg" xmlns:xlink="http://www.w3.org/1999/xlink" x="0px" y="0px"
	 viewBox="0 0 573.69 213.92" style="enable-background:new 0 0 573.69 213.92;" xml:space="preserve">
<style type="text/css">
	.st0{fill:#261C1B;}
	.st1{fill:#D7C8C3;}
	.st2{fill:#261C1B;stroke:#261C1B;stroke-width:1.7278;stroke-miterlimit:10;}
</style>
<rect x="-779.76" y="371.66" class="st0" width="573.69" height="213.92"/>
<g>
	<g>
		<path class="st1" d="M22.37,152.08c17.22-0.18,34.43-0.35,51.65-0.53c41.16-0.42,82.33-0.85,123.49-1.27
			c49.77-0.51,99.54-1.02,149.31-1.53c43.15-0.44,86.3-0.89,129.45-1.33c14.12-0.15,28.24-0.29,42.36-0.44
			c4.43-0.05,8.86-0.09,13.29-0.14c2.17-0.02,4.76,0.34,6.9-0.07c0.28-0.06,0.62-0.01,0.91-0.01c2.03-0.02,5.21-6.94,6.08-8.45
			c0.42-0.72,4.45-9.49,4.28-9.49c-17.22,0.18-34.43,0.35-51.65,0.53c-41.16,0.42-82.33,0.85-123.49,1.27
			c-49.77,0.51-99.54,1.02-149.31,1.53c-43.15,0.44-86.3,0.89-129.45,1.33c-14.12,0.15-28.24,0.29-42.36,0.44
			c-4.43,0.05-8.86,0.09-13.29,0.14c-2.17,0.02-4.76-0.34-6.9,0.07c-0.28,0.06-0.62,0.01-0.91,0.01c-2.03,0.02-5.21,6.94-6.08,8.45
			C26.24,143.31,22.21,152.08,22.37,152.08L22.37,152.08z"/>
	</g>
</g>
<g>
	<path class="st2" d="M54.53,114.94c0.36,0.05,0.53,0.26,0.5,0.62c-0.03,0.36-0.24,0.52-0.66,0.46c-1.03-0.15-2.03-0.41-3.01-0.77
		c-0.98-0.36-1.85-0.85-2.63-1.47c-0.77-0.62-1.4-1.4-1.89-2.35c-0.49-0.95-0.73-2.07-0.73-3.36c0-1.85,0.71-3.85,2.12-5.98
		c1.42-2.14,3.32-4.25,5.71-6.33c2.39-2.08,5.21-4.1,8.46-6.06c3.24-1.96,6.69-3.67,10.35-5.13c3.65-1.47,7.42-2.65,11.31-3.55
		c3.89-0.9,7.68-1.35,11.39-1.35c2.47,0,4.53,0.72,6.18,2.16c1.65,1.44,2.47,3.4,2.47,5.87c0,2.16-0.54,4.66-1.62,7.49
		c-1.08,2.83-2.52,5.73-4.32,8.69c-1.8,2.96-3.86,5.87-6.18,8.73s-4.7,5.4-7.14,7.64c-2.45,2.24-4.88,4.05-7.3,5.44
		c-2.42,1.39-4.61,2.08-6.56,2.08c-2.52,0-4.3-0.54-5.33-1.62c-1.03-1.08-1.54-2.44-1.54-4.09c0-1.08,0.18-2.21,0.54-3.4
		c0.36-1.18,0.85-2.34,1.47-3.47c0.62-1.13,1.31-2.2,2.08-3.2c0.77-1,1.57-1.87,2.39-2.59c0.26-0.21,0.51-0.19,0.77,0.04
		c0.26,0.23,0.26,0.48,0,0.73c-0.77,0.67-1.53,1.48-2.28,2.43c-0.75,0.95-1.4,1.97-1.97,3.05c-0.57,1.08-1.03,2.18-1.39,3.28
		c-0.36,1.11-0.54,2.15-0.54,3.13c0,1.34,0.42,2.44,1.27,3.32c0.85,0.87,2.35,1.31,4.52,1.31c1.9,0,4.02-0.67,6.33-2.01
		c2.32-1.34,4.66-3.1,7.03-5.29c2.37-2.19,4.68-4.67,6.95-7.45c2.26-2.78,4.26-5.61,5.98-8.49c1.72-2.88,3.11-5.7,4.17-8.46
		c1.05-2.75,1.58-5.19,1.58-7.3c0-2.16-0.72-3.86-2.16-5.1c-1.44-1.24-3.24-1.85-5.4-1.85c-3.66,0-7.37,0.42-11.16,1.27
		c-3.78,0.85-7.46,2-11.04,3.44c-3.58,1.44-6.95,3.1-10.12,4.98c-3.17,1.88-5.93,3.82-8.3,5.83c-2.37,2.01-4.23,4.04-5.6,6.1
		c-1.36,2.06-2.05,3.96-2.05,5.71c0,1.08,0.21,2.03,0.62,2.86c0.41,0.82,0.96,1.51,1.66,2.05c0.69,0.54,1.48,0.98,2.35,1.31
		C52.71,114.61,53.61,114.83,54.53,114.94z"/>
	<path class="st2" d="M123.73,82.62c-0.18,0-0.26-0.09-0.26-0.26c0-0.15,0.08-0.36,0.25-0.64c0.16-0.28,0.35-0.57,0.57-0.87
		c0.21-0.3,0.41-0.59,0.58-0.87c0.18-0.28,0.28-0.48,0.3-0.6c0-0.13-0.01-0.22-0.04-0.28c-0.03-0.06-0.1-0.09-0.23-0.09
		c-1.08,0-1.62-0.52-1.62-1.55c0-0.58,0.2-1.27,0.6-2.07c0.4-0.8,0.9-1.57,1.51-2.3c0.6-0.73,1.24-1.34,1.92-1.85
		c0.68-0.5,1.29-0.75,1.85-0.75c0.5,0,0.9,0.16,1.21,0.49c0.3,0.33,0.45,0.84,0.45,1.55c0,0.45-0.05,0.89-0.15,1.32
		c-0.13,0.6-0.36,1.24-0.72,1.92c-0.35,0.68-0.75,1.34-1.21,1.98c-0.45,0.64-0.94,1.26-1.47,1.85c-0.53,0.59-1.02,1.11-1.49,1.56
		c-0.47,0.45-0.89,0.81-1.26,1.07C124.15,82.49,123.88,82.62,123.73,82.62z"/>
	<path class="st2" d="M132.88,119.65c0.05-0.26,0.26-0.39,0.62-0.39c0.36,0,0.51,0.18,0.46,0.54l-0.39,2.01
		c0.36-0.26,0.8-0.57,1.31-0.93c0.51-0.36,1.05-0.71,1.62-1.04c0.57-0.33,1.13-0.62,1.7-0.85c0.57-0.23,1.08-0.35,1.54-0.35
		c0.82,0,1.27,0.27,1.35,0.81c0.08,0.54,0.12,1.09,0.12,1.66c0,0.36,0.01,0.67,0.04,0.93c0.02,0.26,0.12,0.39,0.27,0.39
		c0.67,0,1.47-0.23,2.39-0.7c0.93-0.46,1.85-0.98,2.78-1.54c0.98-0.57,1.92-1.07,2.82-1.51c0.9-0.44,1.66-0.66,2.28-0.66
		c0.87,0,1.56,0.25,2.05,0.73c0.49,0.49,0.97,1.07,1.43,1.74c0.41,0.57,0.86,1.12,1.35,1.66c0.49,0.54,1.17,0.81,2.05,0.81
		c0.87,0,1.84-0.18,2.9-0.54c1.05-0.36,2.06-0.76,3.01-1.2c0.95-0.44,1.78-0.85,2.47-1.24c0.69-0.39,1.12-0.63,1.27-0.73
		c0.26-0.21,0.49-0.17,0.69,0.12c0.21,0.28,0.18,0.55-0.08,0.81c-0.15,0.1-0.59,0.36-1.31,0.77c-0.72,0.41-1.58,0.85-2.59,1.31
		c-1,0.46-2.07,0.88-3.2,1.24c-1.13,0.36-2.19,0.54-3.17,0.54c-1.13,0-2.01-0.31-2.63-0.93s-1.18-1.29-1.7-2.01
		c-0.41-0.57-0.8-1.04-1.16-1.43c-0.36-0.39-0.82-0.58-1.39-0.58c-0.46,0-1.12,0.19-1.97,0.58c-0.85,0.39-1.71,0.86-2.59,1.43
		c-1.03,0.62-2.06,1.17-3.09,1.66c-1.03,0.49-1.91,0.73-2.63,0.73c-0.72,0-1.13-0.24-1.24-0.73c-0.1-0.49-0.15-1.04-0.15-1.66
		c0-0.36-0.01-0.68-0.04-0.96c-0.03-0.28-0.14-0.42-0.35-0.42c-0.36,0-0.81,0.13-1.35,0.39c-0.54,0.26-1.11,0.57-1.7,0.93
		c-0.59,0.36-1.17,0.75-1.74,1.16c-0.57,0.41-1.08,0.77-1.54,1.08c-0.41,0.31-0.71,0.41-0.89,0.31c-0.18-0.1-0.25-0.28-0.19-0.54
		L132.88,119.65z"/>
	<path class="st2" d="M182.99,132.77c0.21,0.31,0.15,0.55-0.15,0.73c-0.31,0.18-0.57,0.14-0.77-0.12c-0.93-1.44-1.39-3.37-1.39-5.79
		c0-2.63,0.55-5.61,1.66-8.96c1.11-3.35,2.54-6.76,4.29-10.23c1.75-3.47,3.73-6.87,5.95-10.19c2.21-3.32,4.43-6.28,6.64-8.88
		c2.21-2.6,4.31-4.7,6.29-6.29c1.98-1.6,3.67-2.39,5.06-2.39c1.44,0,2.59,0.59,3.44,1.78c0.85,1.18,1.53,2.75,2.05,4.71
		c0.51,1.96,0.89,4.18,1.12,6.68c0.23,2.5,0.45,5.08,0.66,7.76c0.21,2.68,0.44,5.32,0.69,7.91c0.26,2.6,0.63,4.92,1.12,6.95
		c0.49,2.03,1.17,3.68,2.05,4.94c0.87,1.26,2.01,1.89,3.4,1.89c1.8,0,3.41-0.71,4.83-2.12c1.42-1.42,2.6-3.24,3.55-5.48
		c0.95-2.24,1.69-4.74,2.2-7.49c0.51-2.75,0.77-5.44,0.77-8.07c0-1.08-0.04-2.14-0.12-3.17c-0.08-1.03-0.22-2.03-0.42-3.01
		c-0.1-0.26,0.03-0.44,0.39-0.54c0.36-0.1,0.59,0.03,0.69,0.39c0.36,1.8,0.54,3.91,0.54,6.33c0,2.78-0.28,5.6-0.85,8.46
		c-0.57,2.86-1.38,5.46-2.43,7.8c-1.06,2.34-2.35,4.26-3.9,5.75c-1.54,1.49-3.29,2.24-5.25,2.24c-1.65,0-2.97-0.66-3.98-1.97
		c-1-1.31-1.8-3.05-2.39-5.21c-0.59-2.16-1.02-4.61-1.27-7.34c-0.26-2.73-0.49-5.48-0.7-8.26v0.08c-0.21-2.52-0.42-4.98-0.66-7.37
		c-0.23-2.39-0.55-4.52-0.96-6.37c-0.41-1.85-0.98-3.35-1.7-4.48c-0.72-1.13-1.67-1.7-2.86-1.7c-1.29,0-2.91,0.77-4.86,2.32
		c-1.96,1.54-3.99,3.59-6.1,6.14c-2.11,2.55-4.23,5.44-6.37,8.69c-2.14,3.24-4.05,6.56-5.75,9.96s-3.08,6.73-4.13,10
		c-1.05,3.27-1.58,6.19-1.58,8.76C181.76,129.71,182.17,131.43,182.99,132.77z"/>
	<path class="st2" d="M248.93,119.65c-0.1,0.26-0.31,0.37-0.62,0.35c-0.31-0.02-0.46-0.19-0.46-0.5c0.05-0.21,0.02-0.44-0.08-0.7
		c-0.1-0.26-0.33-0.39-0.69-0.39c-0.41,0-0.85,0.12-1.31,0.35c-0.46,0.23-0.9,0.53-1.31,0.89c-0.41,0.36-0.76,0.73-1.04,1.12
		c-0.28,0.39-0.42,0.76-0.42,1.12c0,0.21,0.1,0.3,0.31,0.27c0.21-0.03,0.48-0.13,0.81-0.31c0.33-0.18,0.71-0.41,1.12-0.7
		c0.41-0.28,0.82-0.6,1.24-0.96c0.31-0.26,0.57-0.36,0.77-0.31c0.21,0.05,0.41,0.18,0.62,0.39c0.72,0.72,1.52,1.21,2.39,1.47
		c0.87,0.26,1.67,0.39,2.39,0.39c1.29,0,2.69-0.28,4.21-0.85c1.52-0.57,2.92-1.24,4.21-2.01c0.41-0.15,0.68-0.09,0.81,0.19
		c0.13,0.28,0.06,0.53-0.19,0.73c-1.34,0.82-2.83,1.53-4.48,2.12c-1.65,0.59-3.17,0.89-4.56,0.89c-1.03,0-2.02-0.17-2.97-0.5
		c-0.95-0.33-1.84-0.86-2.66-1.58c-1.29,1.24-2.46,1.93-3.51,2.08c-1.06,0.15-1.58-0.28-1.58-1.31c0-0.46,0.17-0.97,0.5-1.51
		c0.33-0.54,0.76-1.03,1.27-1.47c0.51-0.44,1.08-0.81,1.7-1.12c0.62-0.31,1.18-0.46,1.7-0.46c0.82,0,1.35,0.28,1.58,0.85
		C248.89,118.75,248.98,119.23,248.93,119.65z"/>
	<path class="st2" d="M261.05,119.65c0.1-0.36,0.32-0.49,0.66-0.39c0.33,0.1,0.48,0.28,0.42,0.54l-0.39,1.85
		c1.03-0.72,2.02-1.36,2.97-1.93c0.95-0.57,1.74-0.85,2.35-0.85c0.67,0,1.12,0.19,1.35,0.58c0.23,0.39,0.42,0.76,0.58,1.12
		c0.21,0.46,0.51,0.93,0.93,1.39c0.41,0.46,1.16,0.69,2.24,0.69c1.03,0,2.43-0.24,4.21-0.73c1.78-0.49,4.1-1.38,6.99-2.66
		c0.31-0.1,0.53-0.01,0.66,0.27c0.13,0.28,0.06,0.5-0.19,0.66c-3.04,1.34-5.47,2.27-7.3,2.78c-1.83,0.52-3.28,0.77-4.36,0.77
		c-0.72,0-1.31-0.08-1.78-0.23c-0.46-0.15-0.85-0.37-1.16-0.66c-0.31-0.28-0.54-0.58-0.7-0.89c-0.15-0.31-0.31-0.62-0.46-0.93
		c-0.26-0.72-0.59-1.08-1-1.08c-0.57,0-1.26,0.27-2.08,0.81c-0.82,0.54-2.06,1.43-3.71,2.66c-0.1,0.1-0.28,0.17-0.54,0.19
		c-0.26,0.03-0.36-0.09-0.31-0.35L261.05,119.65z"/>
	<path class="st2" d="M289.08,119.65c-0.1,0.26-0.31,0.37-0.62,0.35c-0.31-0.02-0.46-0.19-0.46-0.5c0.05-0.21,0.02-0.44-0.08-0.7
		c-0.1-0.26-0.33-0.39-0.69-0.39c-0.41,0-0.85,0.12-1.31,0.35c-0.46,0.23-0.9,0.53-1.31,0.89c-0.41,0.36-0.76,0.73-1.04,1.12
		c-0.28,0.39-0.42,0.76-0.42,1.12c0,0.21,0.1,0.3,0.31,0.27c0.21-0.03,0.48-0.13,0.81-0.31c0.33-0.18,0.71-0.41,1.12-0.7
		c0.41-0.28,0.82-0.6,1.24-0.96c0.31-0.26,0.57-0.36,0.77-0.31c0.21,0.05,0.41,0.18,0.62,0.39c0.72,0.72,1.52,1.21,2.39,1.47
		c0.88,0.26,1.67,0.39,2.39,0.39c1.29,0,2.69-0.28,4.21-0.85c1.52-0.57,2.92-1.24,4.21-2.01c0.41-0.15,0.68-0.09,0.81,0.19
		c0.13,0.28,0.06,0.53-0.19,0.73c-1.34,0.82-2.83,1.53-4.48,2.12c-1.65,0.59-3.17,0.89-4.56,0.89c-1.03,0-2.02-0.17-2.97-0.5
		c-0.95-0.33-1.84-0.86-2.66-1.58c-1.29,1.24-2.46,1.93-3.51,2.08c-1.06,0.15-1.58-0.28-1.58-1.31c0-0.46,0.17-0.97,0.5-1.51
		c0.33-0.54,0.76-1.03,1.27-1.47c0.51-0.44,1.08-0.81,1.7-1.12c0.62-0.31,1.18-0.46,1.7-0.46c0.82,0,1.35,0.28,1.58,0.85
		C289.04,118.75,289.13,119.23,289.08,119.65z"/>
	<path class="st2" d="M330.31,78.03c0.26-0.31,0.51-0.35,0.77-0.12c0.26,0.23,0.31,0.48,0.15,0.73c-1.29,2.01-2.5,4.2-3.63,6.56
		c-1.13,2.37-2.11,4.77-2.93,7.22c-0.82,2.45-1.48,4.84-1.97,7.18c-0.49,2.34-0.73,4.49-0.73,6.45c0,1.8,0.39,3.36,1.16,4.67
		c0.77,1.31,1.72,1.97,2.86,1.97c2.16,0,4.54-0.86,7.14-2.59c2.6-1.72,5.3-3.96,8.11-6.72c2.8-2.75,5.66-5.85,8.57-9.3
		c2.91-3.45,5.73-6.87,8.46-10.27c0.21-0.26,0.41-0.5,0.62-0.73c0.21-0.23,0.41-0.48,0.62-0.73c0.15-0.26,0.37-0.3,0.66-0.12
		c0.28,0.18,0.32,0.42,0.12,0.73c-2.88,3.55-5.34,7.32-7.37,11.31c-2.03,3.99-3.72,8.07-5.06,12.24c-1.34,4.17-2.37,8.34-3.09,12.51
		s-1.21,8.18-1.47,12.04c0,0.41-0.18,0.62-0.54,0.62c-0.36,0-0.54-0.21-0.54-0.62c0.21-3.09,0.55-6.28,1.04-9.57
		c0.49-3.29,1.16-6.61,2.01-9.96c0.85-3.35,1.9-6.68,3.17-10c1.26-3.32,2.79-6.55,4.59-9.69c-2.42,2.88-4.84,5.64-7.26,8.26
		c-2.42,2.63-4.79,4.96-7.1,6.99c-2.32,2.03-4.54,3.66-6.68,4.86c-2.14,1.21-4.13,1.81-5.98,1.81c-1.44,0-2.65-0.75-3.63-2.24
		c-0.98-1.49-1.47-3.32-1.47-5.48c0-2.01,0.24-4.21,0.73-6.6c0.49-2.39,1.16-4.84,2.01-7.34c0.85-2.5,1.84-4.95,2.97-7.37
		C327.74,82.33,328.98,80.09,330.31,78.03z"/>
	<path class="st2" d="M365.68,119.65c-0.1,0.26-0.31,0.37-0.62,0.35c-0.31-0.02-0.46-0.19-0.46-0.5c0.05-0.21,0.03-0.44-0.08-0.7
		c-0.1-0.26-0.34-0.39-0.7-0.39c-0.41,0-0.85,0.12-1.31,0.35c-0.46,0.23-0.9,0.53-1.31,0.89c-0.41,0.36-0.76,0.73-1.04,1.12
		c-0.28,0.39-0.42,0.76-0.42,1.12c0,0.21,0.1,0.3,0.31,0.27c0.21-0.03,0.48-0.13,0.81-0.31c0.33-0.18,0.71-0.41,1.12-0.7
		c0.41-0.28,0.82-0.6,1.24-0.96c0.31-0.26,0.57-0.36,0.77-0.31c0.21,0.05,0.41,0.18,0.62,0.39c0.72,0.72,1.52,1.21,2.39,1.47
		c0.88,0.26,1.67,0.39,2.39,0.39c1.29,0,2.69-0.28,4.21-0.85c1.52-0.57,2.92-1.24,4.21-2.01c0.41-0.15,0.68-0.09,0.81,0.19
		c0.13,0.28,0.06,0.53-0.19,0.73c-1.34,0.82-2.83,1.53-4.48,2.12c-1.65,0.59-3.17,0.89-4.56,0.89c-1.03,0-2.02-0.17-2.97-0.5
		c-0.95-0.33-1.84-0.86-2.66-1.58c-1.29,1.24-2.46,1.93-3.51,2.08c-1.06,0.15-1.58-0.28-1.58-1.31c0-0.46,0.17-0.97,0.5-1.51
		c0.33-0.54,0.76-1.03,1.27-1.47c0.51-0.44,1.08-0.81,1.7-1.12c0.62-0.31,1.18-0.46,1.7-0.46c0.82,0,1.35,0.28,1.58,0.85
		C365.64,118.75,365.73,119.23,365.68,119.65z"/>
	<path class="st2" d="M377.65,119.65c0.05-0.26,0.26-0.39,0.62-0.39c0.36,0,0.51,0.18,0.46,0.54l-0.39,2.01
		c0.36-0.26,0.8-0.57,1.31-0.93c0.51-0.36,1.05-0.71,1.62-1.04c0.57-0.33,1.13-0.62,1.7-0.85c0.57-0.23,1.08-0.35,1.54-0.35
		c0.82,0,1.27,0.27,1.35,0.81c0.08,0.54,0.12,1.09,0.12,1.66c0,0.36,0.01,0.67,0.04,0.93c0.03,0.26,0.12,0.39,0.27,0.39
		c0.67,0,1.47-0.23,2.39-0.7c0.93-0.46,1.85-0.98,2.78-1.54c0.98-0.57,1.92-1.07,2.82-1.51c0.9-0.44,1.66-0.66,2.28-0.66
		c0.88,0,1.56,0.25,2.05,0.73c0.49,0.49,0.96,1.07,1.43,1.74c0.41,0.57,0.86,1.12,1.35,1.66c0.49,0.54,1.17,0.81,2.05,0.81
		c0.87,0,1.84-0.18,2.9-0.54c1.05-0.36,2.06-0.76,3.01-1.2c0.95-0.44,1.78-0.85,2.47-1.24c0.7-0.39,1.12-0.63,1.27-0.73
		c0.26-0.21,0.49-0.17,0.7,0.12c0.21,0.28,0.18,0.55-0.08,0.81c-0.16,0.1-0.59,0.36-1.31,0.77c-0.72,0.41-1.58,0.85-2.59,1.31
		c-1,0.46-2.07,0.88-3.21,1.24c-1.13,0.36-2.19,0.54-3.17,0.54c-1.13,0-2.01-0.31-2.62-0.93c-0.62-0.62-1.19-1.29-1.7-2.01
		c-0.41-0.57-0.8-1.04-1.16-1.43c-0.36-0.39-0.82-0.58-1.39-0.58c-0.46,0-1.12,0.19-1.97,0.58c-0.85,0.39-1.71,0.86-2.59,1.43
		c-1.03,0.62-2.06,1.17-3.09,1.66c-1.03,0.49-1.9,0.73-2.62,0.73c-0.72,0-1.13-0.24-1.24-0.73c-0.1-0.49-0.15-1.04-0.15-1.66
		c0-0.36-0.01-0.68-0.04-0.96c-0.03-0.28-0.14-0.42-0.35-0.42c-0.36,0-0.81,0.13-1.35,0.39c-0.54,0.26-1.11,0.57-1.7,0.93
		c-0.59,0.36-1.17,0.75-1.74,1.16c-0.57,0.41-1.08,0.77-1.54,1.08c-0.41,0.31-0.71,0.41-0.89,0.31c-0.18-0.1-0.25-0.28-0.19-0.54
		L377.65,119.65z"/>
	<path class="st2" d="M418.8,119.65c-0.1,0.26-0.31,0.37-0.62,0.35c-0.31-0.02-0.46-0.19-0.46-0.5c0.05-0.21,0.03-0.44-0.08-0.7
		c-0.1-0.26-0.34-0.39-0.7-0.39c-0.41,0-0.85,0.12-1.31,0.35c-0.46,0.23-0.9,0.53-1.31,0.89c-0.41,0.36-0.76,0.73-1.04,1.12
		c-0.28,0.39-0.42,0.76-0.42,1.12c0,0.21,0.1,0.3,0.31,0.27c0.21-0.03,0.48-0.13,0.81-0.31c0.33-0.18,0.71-0.41,1.12-0.7
		c0.41-0.28,0.82-0.6,1.24-0.96c0.31-0.26,0.57-0.36,0.77-0.31c0.21,0.05,0.41,0.18,0.62,0.39c0.72,0.72,1.52,1.21,2.39,1.47
		c0.88,0.26,1.67,0.39,2.39,0.39c1.29,0,2.69-0.28,4.21-0.85c1.52-0.57,2.92-1.24,4.21-2.01c0.41-0.15,0.68-0.09,0.81,0.19
		c0.13,0.28,0.06,0.53-0.19,0.73c-1.34,0.82-2.83,1.53-4.48,2.12c-1.65,0.59-3.17,0.89-4.56,0.89c-1.03,0-2.02-0.17-2.97-0.5
		c-0.95-0.33-1.84-0.86-2.66-1.58c-1.29,1.24-2.46,1.93-3.51,2.08c-1.06,0.15-1.58-0.28-1.58-1.31c0-0.46,0.17-0.97,0.5-1.51
		c0.33-0.54,0.76-1.03,1.27-1.47c0.51-0.44,1.08-0.81,1.7-1.12c0.62-0.31,1.18-0.46,1.7-0.46c0.82,0,1.35,0.28,1.58,0.85
		C418.76,118.75,418.85,119.23,418.8,119.65z"/>
	<path class="st2" d="M449.07,119.18c0.36-0.1,0.58,0.03,0.66,0.39c0.08,0.36-0.04,0.59-0.35,0.69c-3.76,0.98-7.52,2.03-11.27,3.17
		c0,1.65-0.42,3.59-1.27,5.83c-0.85,2.24-2.02,4.39-3.51,6.45c-1.49,2.06-3.27,3.81-5.33,5.25c-2.06,1.44-4.32,2.16-6.79,2.16
		c-1.49,0-2.78-0.54-3.86-1.62c-1.08-1.08-1.62-2.37-1.62-3.86c0-1.75,0.59-3.35,1.78-4.79c1.18-1.44,2.75-2.78,4.71-4.02
		c1.96-1.24,4.21-2.35,6.76-3.36c2.55-1,5.21-1.94,7.99-2.82c-0.05-0.67-0.21-1.24-0.46-1.7c-0.72,0.46-1.43,0.9-2.12,1.31
		c-0.69,0.41-1.48,0.62-2.35,0.62c-0.62,0-1.13-0.15-1.54-0.46c-0.41-0.31-0.62-0.75-0.62-1.31c0-0.72,0.39-1.39,1.16-2.01
		c0.77-0.62,1.65-0.93,2.62-0.93c0.57,0,1.14,0.09,1.74,0.27c0.59,0.18,1.12,0.53,1.58,1.04c0.51-0.26,1.04-0.46,1.58-0.62
		c0.54-0.15,1.12-0.18,1.74-0.08c0.41,0.1,0.59,0.32,0.54,0.66c-0.05,0.34-0.23,0.48-0.54,0.42c-0.93-0.15-1.85,0.03-2.78,0.54
		c0.26,0.41,0.44,1.03,0.54,1.85c1.85-0.57,3.71-1.11,5.56-1.62C445.44,120.14,447.26,119.65,449.07,119.18z M421.19,142.04
		c1.49,0,2.92-0.31,4.29-0.93c1.36-0.62,2.62-1.43,3.78-2.43s2.2-2.15,3.13-3.44s1.74-2.6,2.43-3.94c0.69-1.34,1.22-2.66,1.58-3.98
		s0.57-2.51,0.62-3.59c-2.68,0.82-5.24,1.72-7.68,2.7c-2.44,0.98-4.59,2.03-6.45,3.17c-1.85,1.13-3.33,2.37-4.44,3.71
		c-1.11,1.34-1.66,2.78-1.66,4.32c0,1.18,0.44,2.21,1.31,3.09C418.98,141.6,420.01,142.04,421.19,142.04z M432,121.81
		c0.72,0,1.4-0.18,2.05-0.54c0.64-0.36,1.27-0.75,1.89-1.16c-0.36-0.31-0.73-0.53-1.12-0.66c-0.39-0.13-0.79-0.19-1.2-0.19
		c-0.72,0-1.35,0.19-1.89,0.58c-0.54,0.39-0.81,0.81-0.81,1.27C430.92,121.58,431.28,121.81,432,121.81z"/>
	<path class="st2" d="M449.3,118.18c0.15-0.26,0.37-0.31,0.66-0.15c0.28,0.15,0.37,0.36,0.27,0.62c-0.15,0.31-0.31,0.69-0.46,1.16
		c-0.16,0.46-0.27,0.91-0.35,1.35c-0.08,0.44-0.12,0.82-0.12,1.16c0,0.34,0.13,0.5,0.39,0.5c0.72,0,1.51-0.33,2.36-1
		c0.85-0.67,1.58-1.44,2.2-2.32c0.36-0.51,0.75-0.49,1.16,0.08c0.46,0.67,1,1.26,1.62,1.78c0.62,0.52,1.47,0.77,2.55,0.77
		c0.62,0,1.31-0.1,2.08-0.31c0.77-0.21,1.56-0.45,2.35-0.73c0.8-0.28,1.53-0.58,2.2-0.89c0.67-0.31,1.18-0.59,1.54-0.85
		c0.31-0.26,0.59-0.24,0.85,0.04c0.26,0.28,0.21,0.55-0.15,0.81c-0.41,0.31-0.98,0.64-1.7,1c-0.72,0.36-1.51,0.68-2.35,0.97
		c-0.85,0.28-1.71,0.53-2.59,0.73c-0.88,0.21-1.62,0.31-2.24,0.31c-1.13,0-2.11-0.27-2.93-0.81c-0.82-0.54-1.47-1.12-1.93-1.74
		c-0.52,0.67-1.26,1.38-2.24,2.12c-0.98,0.75-1.91,1.12-2.78,1.12c-0.62,0-1.02-0.22-1.2-0.66c-0.18-0.44-0.23-0.97-0.15-1.58
		s0.22-1.25,0.42-1.89C448.96,119.12,449.14,118.59,449.3,118.18z"/>
	<path class="st2" d="M472.31,116.79c0.41-0.05,0.63,0.12,0.66,0.5c0.03,0.39-0.14,0.58-0.5,0.58c-0.41,0.05-0.86,0.17-1.35,0.35
		c-0.49,0.18-0.94,0.42-1.35,0.73c-0.41,0.31-0.77,0.68-1.08,1.12c-0.31,0.44-0.46,0.94-0.46,1.51c0,0.77,0.44,1.33,1.31,1.66
		c0.88,0.34,1.75,0.5,2.62,0.5c2.47,0,4.74-0.44,6.79-1.31c2.06-0.88,3.78-1.9,5.17-3.09c0.26-0.21,0.47-0.18,0.66,0.08
		c0.18,0.26,0.17,0.49-0.04,0.7c-1.49,1.24-3.33,2.33-5.52,3.28c-2.19,0.95-4.54,1.43-7.07,1.43c-0.57,0-1.15-0.07-1.74-0.19
		c-0.59-0.13-1.13-0.32-1.62-0.58c-0.49-0.26-0.89-0.59-1.2-1c-0.31-0.41-0.46-0.9-0.46-1.47c0-0.72,0.18-1.38,0.54-1.97
		c0.36-0.59,0.81-1.08,1.35-1.47c0.54-0.39,1.11-0.69,1.7-0.93C471.31,116.98,471.84,116.84,472.31,116.79z"/>
	<path class="st2" d="M485.74,110.38c0.1-0.31,0.32-0.45,0.66-0.42c0.33,0.03,0.48,0.22,0.42,0.58l-2.08,11.58
		c0.88-1.08,1.66-1.84,2.36-2.28c0.69-0.44,1.38-0.66,2.05-0.66c0.46,0,0.84,0.21,1.12,0.62c0.28,0.41,0.53,0.82,0.73,1.24
		c0.26,0.46,0.6,0.95,1.04,1.47c0.44,0.52,1.04,0.77,1.81,0.77c1.44,0,3.47-0.33,6.1-1c2.63-0.67,5.28-1.67,7.95-3.01
		c0.26-0.1,0.46-0.01,0.62,0.27c0.15,0.28,0.1,0.5-0.15,0.66c-1.39,0.72-2.79,1.34-4.21,1.85c-1.42,0.52-2.77,0.94-4.05,1.27
		c-1.29,0.34-2.47,0.59-3.55,0.77c-1.08,0.18-1.98,0.27-2.7,0.27c-1.18,0-2.03-0.31-2.55-0.93c-0.52-0.62-0.93-1.26-1.24-1.93
		c-0.36-0.82-0.67-1.24-0.93-1.24c-0.62,0-1.34,0.36-2.16,1.08c-0.82,0.72-1.8,1.9-2.93,3.55c-0.1,0.21-0.3,0.27-0.58,0.19
		c-0.28-0.08-0.4-0.24-0.35-0.5L485.74,110.38z"/>
	<path class="st2" d="M514.15,124.05c-0.36,0-0.55-0.15-0.58-0.46c-0.03-0.31,0.12-0.51,0.42-0.62l0.93-0.15
		c0.26-0.05,0.48-0.09,0.66-0.12c0.18-0.03,0.32-0.04,0.42-0.04c0.41,0,0.62,0.15,0.62,0.46c0,0.31-0.21,0.52-0.62,0.62
		c-0.05,0-0.15,0.01-0.31,0.04c-0.16,0.03-0.36,0.06-0.62,0.12L514.15,124.05z M519.17,90.07c0.1-0.41,0.32-0.58,0.66-0.5
		c0.33,0.08,0.47,0.3,0.42,0.66l-3.32,28.49c-0.1,0.36-0.32,0.49-0.66,0.39c-0.34-0.1-0.48-0.28-0.42-0.54L519.17,90.07z"/>
</g>
<g>
	<line class="st0" x1="283.9" y1="34.8" x2="283.9" y2="47.91"/>
	<g>
		<path class="st0" d="M282.5,34.8c0,3.83,0,7.66,0,11.49c0,0.54,0,1.08,0,1.62c0,1.8,2.8,1.8,2.8,0c0-3.83,0-7.66,0-11.49
			c0-0.54,0-1.08,0-1.62C285.3,33,282.5,33,282.5,34.8L282.5,34.8z"/>
	</g>
</g>
<g>
	<line class="st0" x1="304.03" y1="37.47" x2="297.95" y2="49.8"/>
	<g>
		<path class="st0" d="M302.83,36.77c-1.78,3.6-3.55,7.2-5.33,10.8c-0.25,0.51-0.5,1.02-0.75,1.53c-0.33,0.68-0.18,1.51,0.5,1.91
			c0.62,0.36,1.58,0.18,1.91-0.5c1.78-3.6,3.55-7.2,5.33-10.8c0.25-0.51,0.5-1.02,0.75-1.53c0.33-0.68,0.18-1.51-0.5-1.91
			C304.12,35.9,303.16,36.09,302.83,36.77L302.83,36.77z"/>
	</g>
</g>
<g>
	<line class="st0" x1="263.77" y1="37.47" x2="269.85" y2="49.8"/>
	<g>
		<path class="st0" d="M262.56,38.18c1.78,3.6,3.55,7.2,5.33,10.8c0.25,0.51,0.5,1.02,0.75,1.53c0.33,0.68,1.29,0.86,1.91,0.5
			c0.69-0.4,0.84-1.23,0.5-1.91c-1.78-3.6-3.55-7.2-5.33-10.8c-0.25-0.51-0.5-1.02-0.75-1.53c-0.33-0.68-1.29-0.86-1.91-0.5
			C262.37,36.67,262.23,37.5,262.56,38.18L262.56,38.18z"/>
	</g>
</g>
</svg>
